<?xml version="1.0" encoding="UTF-8" standalone="no"?>
<svg
   xmlns:dc="http://purl.org/dc/elements/1.1/"
   xmlns:cc="http://creativecommons.org/ns#"
   xmlns:rdf="http://www.w3.org/1999/02/22-rdf-syntax-ns#"
   xmlns:svg="http://www.w3.org/2000/svg"
   xmlns="http://www.w3.org/2000/svg"
   xmlns:xlink="http://www.w3.org/1999/xlink"
   xmlns:sodipodi="http://sodipodi.sourceforge.net/DTD/sodipodi-0.dtd"
   xmlns:inkscape="http://www.inkscape.org/namespaces/inkscape"
   sodipodi:docname="o.svg"
   inkscape:version="1.0 (6e3e5246a0, 2020-05-07)"
   id="svg1234"
   version="1.1"
   viewBox="0 0 299.99963 300.31607"
   height="300.31607mm"
   width="299.99963mm">
  <defs
     id="defs1228">
    <linearGradient
       id="linearGradient1945"
       inkscape:collect="always">
      <stop
         id="stop1941"
         offset="0"
         style="stop-color:#ff0000;stop-opacity:1" />
      <stop
         id="stop1943"
         offset="1"
         style="stop-color:#4a00ff;stop-opacity:1" />
    </linearGradient>
    <linearGradient
       gradientTransform="matrix(0.26458333,0,0,0.26458333,-709.46437,-34.999844)"
       gradientUnits="userSpaceOnUse"
       y2="-171.966"
       x2="2130.1978"
       y1="19.078047"
       x1="959.88672"
       id="linearGradient1947"
       xlink:href="#linearGradient1945"
       inkscape:collect="always" />
    <linearGradient
       gradientTransform="matrix(0.26458333,0,0,0.26458333,-709.46437,-34.999844)"
       gradientUnits="userSpaceOnUse"
       y2="93.577705"
       x2="435.60217"
       y1="22.485701"
       x1="1795.441"
       id="linearGradient1955"
       xlink:href="#linearGradient1945"
       inkscape:collect="always" />
  </defs>
  <sodipodi:namedview
     inkscape:snap-object-midpoints="false"
     fit-margin-bottom="0"
     fit-margin-right="0"
     fit-margin-left="0"
     fit-margin-top="0"
     inkscape:window-maximized="1"
     inkscape:window-y="27"
     inkscape:window-x="0"
     inkscape:window-height="1016"
     inkscape:window-width="1920"
     showgrid="false"
     inkscape:document-rotation="0"
     inkscape:current-layer="layer1"
     inkscape:document-units="mm"
     inkscape:cy="613.38431"
     inkscape:cx="-728.71438"
     inkscape:zoom="0.1767767"
     inkscape:pageshadow="2"
     inkscape:pageopacity="0.0"
     borderopacity="1.0"
     bordercolor="#666666"
     pagecolor="#ffffff"
     id="base"
     inkscape:pagecheckerboard="false" />
  <metadata
     id="metadata1231">
    <rdf:RDF>
      <cc:Work
         rdf:about="">
        <dc:format>image/svg+xml</dc:format>
        <dc:type
           rdf:resource="http://purl.org/dc/dcmitype/StillImage" />
        <dc:title />
      </cc:Work>
    </rdf:RDF>
  </metadata>
  <g
     transform="translate(492.85899,179.92592)"
     id="layer1"
     inkscape:groupmode="layer"
     inkscape:label="Layer 1">
    <path
       d="m -342.85885,120.34416 a 150,150 0 0 0 10.62313,-0.37673 c -1.60658,0.0554 -10.62313,0.37673 -10.62313,0.37673 z"
       style="font-variation-settings:normal;opacity:1;vector-effect:none;fill:#ff0000;fill-opacity:1;fill-rule:evenodd;stroke-width:0.260125;stroke-linecap:butt;stroke-linejoin:miter;stroke-miterlimit:4;stroke-dasharray:none;stroke-dashoffset:0;stroke-opacity:1;stop-color:#000000;stop-opacity:1"
       id="path1867" />
    <path
       d="m -358.41243,-178.84688 a 149.99999,149.99999 0 0 0 -134.44656,149.191413 149.99999,149.99999 0 0 0 143.56127,149.861137 112.52315,112.52315 0 0 0 6.43887,0.18448 112.52315,112.52315 0 0 0 112.52284,-112.523362 112.52315,112.52315 0 0 0 -111.9611,-112.520258 75,75 0 0 1 74.43832,74.998003 75,75 0 0 1 -75.00006,74.99955 75,75 0 0 1 -1.11879,-0.008 75,75 0 0 0 0.74414,0.008 112.63521,112.63521 0 0 1 -6.88073,-0.23306 112.63521,112.63521 0 0 1 -0.91622,-0.063 112.63521,112.63521 0 0 1 -5.48182,-0.53381 112.63521,112.63521 0 0 1 -0.91107,-0.11524 112.63521,112.63521 0 0 1 -0.45474,-0.0599 112.63521,112.63521 0 0 1 -0.9095,-0.12609 112.63521,112.63521 0 0 1 -1.36221,-0.20309 112.63521,112.63521 0 0 1 -0.90639,-0.1447 112.63521,112.63521 0 0 1 -0.90537,-0.15193 112.63521,112.63521 0 0 1 -1.35599,-0.24184 112.63521,112.63521 0 0 1 -0.90228,-0.17053 112.63521,112.63521 0 0 1 -0.90073,-0.17777 112.63521,112.63521 0 0 1 -0.44958,-0.092 112.63521,112.63521 0 0 1 -0.89865,-0.18862 112.63521,112.63521 0 0 1 -0.44855,-0.0971 112.63521,112.63521 0 0 1 -1.34358,-0.30231 112.63521,112.63521 0 0 1 -1.33998,-0.31884 112.63521,112.63521 0 0 1 -0.89091,-0.22169 112.63521,112.63521 0 0 1 -0.88881,-0.22893 112.63521,112.63521 0 0 1 -0.44392,-0.11679 112.63521,112.63521 0 0 1 -0.88625,-0.23978 112.63521,112.63521 0 0 1 -2.2071,-0.63097 112.63521,112.63521 0 0 1 -1.31773,-0.39997 112.63521,112.63521 0 0 1 -0.4377,-0.13694 112.63521,112.63521 0 0 1 -0.8749,-0.27906 112.63521,112.63521 0 0 1 -0.87228,-0.28628 112.63521,112.63521 0 0 1 -0.86974,-0.29353 112.63521,112.63521 0 0 1 -0.43407,-0.14934 112.63521,112.63521 0 0 1 -1.29863,-0.45889 112.63521,112.63521 0 0 1 -1.29294,-0.47439 112.63521,112.63521 0 0 1 -2.9931,-1.1684 112.63521,112.63521 0 0 1 -0.84905,-0.34933 112.63521,112.63521 0 0 1 -0.84595,-0.35657 112.63521,112.63521 0 0 1 -0.84336,-0.36329 112.63521,112.63521 0 0 1 -0.84023,-0.37 112.63521,112.63521 0 0 1 -0.83717,-0.37724 112.63521,112.63521 0 0 1 -1.66503,-0.77411 112.63521,112.63521 0 0 1 -0.82732,-0.39739 112.63521,112.63521 0 0 1 -0.82476,-0.40411 112.63521,112.63521 0 0 1 -1.23042,-0.61857 112.63521,112.63521 0 0 1 -1.22266,-0.63355 112.63521,112.63521 0 0 1 -0.81079,-0.43098 112.63521,112.63521 0 0 1 -2.01126,-1.10536 112.63521,112.63521 0 0 1 -0.79788,-0.45372 112.63521,112.63521 0 0 1 -5.3e-4,0 112.63521,112.63521 0 0 1 -0.39737,-0.22944 112.63521,112.63521 0 0 1 -1.97456,-1.17048 112.63521,112.63521 0 0 1 -0.39172,-0.23874 112.63521,112.63521 0 0 1 -0.78084,-0.48266 112.63521,112.63521 0 0 1 -0.38912,-0.24391 112.63521,112.63521 0 0 1 -0.77515,-0.49196 112.63521,112.63521 0 0 1 -0.771,-0.49868 112.63521,112.63521 0 0 1 -1.52963,-1.01544 112.63521,112.63521 0 0 1 -1.13636,-0.77825 112.63521,112.63521 0 0 1 -1.12654,-0.79168 112.63521,112.63521 0 0 1 -0.37362,-0.26717 112.63521,112.63521 0 0 1 -0.74364,-0.53847 112.63521,112.63521 0 0 1 -0.73895,-0.54467 112.63521,112.63521 0 0 1 -2.19057,-1.66966 112.63521,112.63521 0 0 1 -0.72088,-0.56844 112.63521,112.63521 0 0 1 -1.42783,-1.15445 112.63521,112.63521 0 0 1 -0.70694,-0.58602 112.63521,112.63521 0 0 1 -0.35139,-0.29507 112.63521,112.63521 0 0 1 -0.69972,-0.59428 112.63521,112.63521 0 0 1 -1.3844,-1.20612 112.63521,112.63521 0 0 1 -5.1e-4,0 112.63521,112.63521 0 0 1 -0.3426,-0.30489 112.63521,112.63521 0 0 1 -5.3e-4,0 112.63521,112.63521 0 0 1 -0.34158,-0.30645 112.63521,112.63521 0 0 1 -0.68006,-0.61701 112.63521,112.63521 0 0 1 -0.33798,-0.31058 112.63521,112.63521 0 0 1 -0.6723,-0.62528 112.63521,112.63521 0 0 1 -0.33436,-0.31471 112.63521,112.63521 0 0 1 -2.3032,-2.240692 112.63521,112.63521 0 0 1 -0.64595,-0.65164 112.63521,112.63521 0 0 1 0,-5.16e-4 112.63521,112.63521 0 0 1 -0.32144,-0.327631 112.63521,112.63521 0 0 1 -0.6382,-0.659907 112.63521,112.63521 0 0 1 -0.94724,-0.999422 112.63521,112.63521 0 0 1 0,-5.16e-4 112.63521,112.63521 0 0 1 -0.93482,-1.01079 112.63521,112.63521 0 0 1 0,-5.19e-4 112.63521,112.63521 0 0 1 -0.30901,-0.338997 112.63521,112.63521 0 0 1 0,-5.16e-4 112.63521,112.63521 0 0 1 -0.91832,-1.025776 112.63521,112.63521 0 0 1 0,-5.19e-4 112.63521,112.63521 0 0 1 -0.30332,-0.344164 112.63521,112.63521 0 0 1 0,-5.16e-4 112.63521,112.63521 0 0 1 -0.30181,-0.3452 112.63521,112.63521 0 0 1 0,-5.16e-4 112.63521,112.63521 0 0 1 -0.59944,-0.695049 112.63521,112.63521 0 0 1 -0.29765,-0.349332 112.63521,112.63521 0 0 1 -0.59119,-0.702281 112.63521,112.63521 0 0 1 0,-5.19e-4 112.63521,112.63521 0 0 1 -1.16477,-1.419034 112.63521,112.63521 0 0 1 0,-5.16e-4 112.63521,112.63521 0 0 1 -0.57362,-0.716235 112.63521,112.63521 0 0 1 0,-5.19e-4 112.63521,112.63521 0 0 1 -0.28472,-0.359667 112.63521,112.63521 0 0 1 0,-5.15e-4 112.63521,112.63521 0 0 1 -0.56483,-0.723472 112.63521,112.63521 0 0 1 -0.28009,-0.363286 112.63521,112.63521 0 0 1 0,-5.16e-4 112.63521,112.63521 0 0 1 -0.55605,-0.73018901 112.63521,112.63521 0 0 1 0,-5.16e-4 112.63521,112.63521 0 0 1 -0.54983,-0.734838 112.63521,112.63521 0 0 1 0,-5.18e-4 112.63521,112.63521 0 0 1 -0.27283,-0.368451 112.63521,112.63521 0 0 1 0,-5.19e-4 112.63521,112.63521 0 0 1 -0.27131,-0.370001 112.63521,112.63521 0 0 1 0,-5.19e-4 112.63521,112.63521 0 0 1 -0.26977,-0.37103499 112.63521,112.63521 0 0 1 0,-5.16e-4 112.63521,112.63521 0 0 1 -0.79994,-1.120347 112.63521,112.63521 0 0 1 0,-5.16e-4 112.63521,112.63521 0 0 1 -0.26355,-0.375171 112.63521,112.63521 0 0 1 0,-5.16e-4 112.63521,112.63521 0 0 1 -0.78187,-1.133266 112.63521,112.63521 0 0 1 0,-5.16e-4 112.63521,112.63521 0 0 1 -0.51313,-0.760677 112.63521,112.63521 0 0 1 0,-5.16e-4 112.63521,112.63521 0 0 1 -0.50747,-0.764812 112.63521,112.63521 0 0 1 0,-5.16e-4 112.63521,112.63521 0 0 1 -0.25115,-0.38344 112.63521,112.63521 0 0 1 0,-5.16e-4 112.63521,112.63521 0 0 1 -0.2496,-0.38499 112.63521,112.63521 0 0 1 0,-5.18e-4 112.63521,112.63521 0 0 1 -0.24805,-0.385506 112.63521,112.63521 0 0 1 0,-5.16e-4 112.63521,112.63521 0 0 1 -0.49144,-0.775147 112.63521,112.63521 0 0 1 0,-5.16e-4 112.63521,112.63521 0 0 1 -0.24339,-0.388607 112.63521,112.63521 0 0 1 0,-5.16e-4 112.63521,112.63521 0 0 1 -0.24185,-0.389641 112.63521,112.63521 0 0 1 0,-5.16e-4 112.63521,112.63521 0 0 1 -0.2403,-0.390674 112.63521,112.63521 0 0 1 0,-5.17e-4 112.63521,112.63521 0 0 1 -0.47543,-0.784965 112.63521,112.63521 0 0 1 0,-5.17e-4 112.63521,112.63521 0 0 1 -0.46921,-0.788582 112.63521,112.63521 0 0 1 0,-5.17e-4 112.63521,112.63521 0 0 1 -0.23204,-0.395325 112.63521,112.63521 0 0 1 0,-5.17e-4 112.63521,112.63521 0 0 1 -0.68678,-1.193208 112.63521,112.63521 0 0 1 0,-5.17e-4 112.63521,112.63521 0 0 1 -0.22582,-0.399459 112.63521,112.63521 0 0 1 0,-5.17e-4 112.63521,112.63521 0 0 1 -0.44649,-0.801501 112.63521,112.63521 0 0 1 0,-5.17e-4 112.63521,112.63521 0 0 1 -0.22066,-0.402042 112.63521,112.63521 0 0 1 0,-5.17e-4 112.63521,112.63521 0 0 1 -0.43664,-0.807186 112.63521,112.63521 0 0 1 0,-5.17e-4 112.63521,112.63521 0 0 1 -0.42995,-0.810803 112.63521,112.63521 0 0 1 -0.63254,-1.223181 112.63521,112.63521 0 0 1 0,-5.17e-4 112.63521,112.63521 0 0 1 -0.20772,-0.408761 112.63521,112.63521 0 0 1 0,-5.16e-4 112.63521,112.63521 0 0 1 -0.20569,-0.409794 112.63521,112.63521 0 0 1 0,-5.17e-4 112.63521,112.63521 0 0 1 -0.40669,-0.822689 112.63521,112.63521 0 0 1 0,-5.17e-4 112.63521,112.63521 0 0 1 -0.201,-0.412378 112.63521,112.63521 0 0 1 0,-5.16e-4 112.63521,112.63521 0 0 1 -0.19897,-0.412895 112.63521,112.63521 0 0 1 0,-5.17e-4 112.63521,112.63521 0 0 1 -0.39325,-0.829407 112.63521,112.63521 0 0 1 -0.38655,-0.832507 112.63521,112.63521 0 0 1 0,-5.17e-4 112.63521,112.63521 0 0 1 -0.19068,-0.417028 112.63521,112.63521 0 0 1 0,-5.17e-4 112.63521,112.63521 0 0 1 -0.37621,-0.837158 112.63521,112.63521 0 0 1 0,-5.17e-4 112.63521,112.63521 0 0 1 -0.18551,-0.419096 112.63521,112.63521 0 0 1 0,-5.17e-4 112.63521,112.63521 0 0 1 -0.18397,-0.420129 112.63521,112.63521 0 0 1 0,-5.17e-4 112.63521,112.63521 0 0 1 -0.54106,-1.266073 112.63521,112.63521 0 0 1 0,-5.16e-4 112.63521,112.63521 0 0 1 -0.35243,-0.847494 112.63521,112.63521 0 0 1 -0.3452,-0.850594 112.63521,112.63521 0 0 1 -0.17001,-0.426331 112.63521,112.63521 0 0 1 0,-5.16e-4 112.63521,112.63521 0 0 1 -0.33487,-0.854212 112.63521,112.63521 0 0 1 0,-5.17e-4 112.63521,112.63521 0 0 1 -0.16485,-0.42788 112.63521,112.63521 0 0 1 0,-5.17e-4 112.63521,112.63521 0 0 1 -0.91363,-2.476851 112.63521,112.63521 0 0 1 -6.51382,-37.747568 112.63521,112.63521 0 0 1 97.08192,-111.555466 z m 14.96911,74.19289 a 112.52315,112.52315 0 0 0 -0.36742,0.003 112.52315,112.52315 0 0 1 0.36742,-0.003 z m -2.75849,0.0481 a 112.52315,112.52315 0 0 0 -0.3793,0.0119 112.52315,112.52315 0 0 1 0.3793,-0.0119 z m -1.3658,0.0491 a 112.52315,112.52315 0 0 0 -0.40616,0.0176 112.52315,112.52315 0 0 1 0.40616,-0.0176 z m -9.13691,0.75654 a 112.52315,112.52315 0 0 0 -0.41032,0.0517 112.52315,112.52315 0 0 1 0.41032,-0.0517 z m 1.6609,0.14056 a 75,75 0 0 0 -0.67646,0.11473 75,75 0 0 1 0.67646,-0.11473 z m -8.91731,1.00046 a 112.52315,112.52315 0 0 0 -0.41341,0.0801 112.52315,112.52315 0 0 1 0.41341,-0.0801 z m -5.83737,1.27641 a 112.52315,112.52315 0 0 0 -0.4201,0.10387 112.52315,112.52315 0 0 1 0.4201,-0.10387 z m -7.48273,2.121831 a 112.52315,112.52315 0 0 0 -0.42479,0.13746 112.52315,112.52315 0 0 1 0.42479,-0.13746 z m -7.76335,2.81275 a 112.52315,112.52315 0 0 0 -0.83717,0.3421 112.52315,112.52315 0 0 1 0.83717,-0.3421 z m -4.63953,1.99833 a 112.52315,112.52315 0 0 0 -0.37258,0.17156 112.52315,112.52315 0 0 1 0.37258,-0.17156 z m -19.77707,11.62255 a 112.52315,112.52315 0 0 0 -0.30025,0.22117 112.52315,112.52315 0 0 1 0.30025,-0.22117 z m 12.45454,1.27692 a 75,75 0 0 0 -0.25892,0.27078 75,75 0 0 0 -0.25683,0.27234 75,75 0 0 1 0.51575,-0.54312 z m -0.90434,0.96066 a 75,75 0 0 0 -0.12195,0.13126 75,75 0 0 0 -0.13179,0.14418 75,75 0 0 1 0.25374,-0.27544 z m -0.74467,0.81701 a 75,75 0 0 0 -0.13229,0.14676 75,75 0 0 0 -0.24805,0.27957 75,75 0 0 1 0.38034,-0.42633 z m -0.87437,0.99012 a 75,75 0 0 0 -0.24492,0.2837 75,75 0 0 0 -0.24289,0.28474 75,75 0 0 1 0.48781,-0.56844 z m -16.36953,1.05523 a 112.52315,112.52315 0 0 0 -0.34624,0.29662 112.52315,112.52315 0 0 1 0.34624,-0.29662 z m 14.21929,1.54099 a 75,75 0 0 0 -0.23204,0.29404 75,75 0 0 1 5.3e-4,0 75,75 0 0 1 0.23151,-0.29404 z m -0.59272,0.75965 a 75,75 0 0 0 -0.0982,0.1266 75,75 0 0 1 0,5.2e-4 75,75 0 0 0 -0.0982,0.12868 75,75 0 0 1 0.19637,-0.2558 z m -16.54112,0.27543 a 112.52315,112.52315 0 0 0 -0.51419,0.47284 112.52315,112.52315 0 0 1 0.51419,-0.47284 z m 16.10342,0.29869 a 75,75 0 0 0 -0.11319,0.14934 75,75 0 0 0 -0.44699,0.60152 75,75 0 0 1 0.56018,-0.75086 z m -1.00097,1.35651 a 75,75 0 0 0 -0.2186,0.30437 75,75 0 0 0 -0.21654,0.30541 75,75 0 0 1 0.43514,-0.60978 z m -0.65011,0.91674 a 75,75 0 0 0 -0.21394,0.30747 75,75 0 0 0 -0.12557,0.18294 75,75 0 0 1 0.33951,-0.49041 z m -1.05265,1.548739 a 75,75 0 0 0 -0.20619,0.313161 75,75 0 0 0 -0.20412,0.313674 75,75 0 0 1 0.41031,-0.626835 z m -0.61288,0.942062 a 75,75 0 0 0 -0.20153,0.315743 75,75 0 0 0 -0.19897,0.316775 75,75 0 0 1 0.4005,-0.632518 z m -0.401,0.633037 a 75,75 0 0 0 -0.19793,0.31781 75,75 0 0 0 -0.19635,0.318844 75,75 0 0 0 -0.38809,0.640786 75,75 0 0 1 5e-4,0 75,75 0 0 1 0.78187,-1.27744 z m -1.35186,2.246373 a 75,75 0 0 0 -0.18706,0.324528 75,75 0 0 0 -0.185,0.325562 75,75 0 0 1 0.37206,-0.65009 z m -1.09657,1.962156 a 75,75 0 0 0 -0.17674,0.329694 75,75 0 0 0 -0.3483,0.663009 75,75 0 0 1 0.52504,-0.992703 z m -1.64279,3.232877 a 75,75 0 0 0 -0.0517,0.106969 75,75 0 0 0 -0.10903,0.23151 75,75 0 0 1 0.16071,-0.338479 z m -20.91553,0.486791 a 112.52315,112.52315 0 0 0 -0.56327,0.724504 112.52315,112.52315 0 0 1 0.56327,-0.724504 z m 20.07992,1.321367 a 75,75 0 0 0 -0.15193,0.342098 75,75 0 0 0 -0.14986,0.343131 75,75 0 0 1 0.30179,-0.685229 z m -0.45011,1.029394 a 75,75 0 0 0 -0.29144,0.689881 75,75 0 0 1 0.29144,-0.689881 z m -0.75499,1.829346 a 75,75 0 0 0 -0.0987,0.249597 75,75 0 0 0 -0.13592,0.348816 75,75 0 0 1 0.23461,-0.598413 z m -0.23461,0.59893 a 75,75 0 0 0 -0.13488,0.349333 75,75 0 0 0 -0.13229,0.350366 75,75 0 0 1 0.26717,-0.699699 z m -0.26717,0.699699 a 75,75 0 0 0 -0.13126,0.350883 75,75 0 0 0 -0.1292,0.351399 75,75 0 0 1 5.3e-4,0 75,75 0 0 1 0.25993,-0.702282 z m -22.44926,0.06511 a 112.52315,112.52315 0 0 0 -0.51782,0.757577 112.52315,112.52315 0 0 1 0.51782,-0.757577 z m 21.96817,1.25212 a 75,75 0 0 0 -0.0326,0.09043 75,75 0 0 0 -0.092,0.263033 75,75 0 0 1 0.12454,-0.353467 z m -0.24702,0.70745 a 75,75 0 0 0 -0.0315,0.09043 75,75 0 0 0 -0.12041,0.355017 75,75 0 0 0 -0.11832,0.355017 75,75 0 0 0 -0.23151,0.712618 75,75 0 0 1 0.50178,-1.513086 z m -24.25795,1.88774 a 112.52315,112.52315 0 0 0 -0.20153,0.320911 112.52315,112.52315 0 0 1 0.20153,-0.320911 z m 23.53138,0.340031 a 75,75 0 0 0 -0.21807,0.716752 75,75 0 0 0 -0.10594,0.359152 75,75 0 0 0 -0.20672,0.719852 75,75 0 0 1 0.53073,-1.795756 z m -1.08987,3.897437 a 75,75 0 0 0 -0.0904,0.363802 75,75 0 0 1 0.0904,-0.363802 z m -0.0904,0.363802 a 75,75 0 0 0 -0.0176,0.0708 75,75 0 0 0 -0.0708,0.293005 75,75 0 0 1 0.0883,-0.363802 z m -24.93594,-0.290422 a 112.52315,112.52315 0 0 0 -0.21704,0.382406 112.52315,112.52315 0 0 1 0.21704,-0.382406 z m 24.57733,1.820044 a 75,75 0 0 0 -0.0812,0.365869 75,75 0 0 0 -0.0785,0.36587 75,75 0 0 1 0.15968,-0.731739 z m -0.38553,1.832963 a 75,75 0 0 0 -0.0718,0.36742 75,75 0 0 0 -0.0698,0.367936 75,75 0 0 0 -0.37983,2.215369 75,75 0 0 0 -0.0568,0.370003 75,75 0 0 1 0,5.17e-4 75,75 0 0 0 -0.0548,0.370003 75,75 0 0 0 -0.0527,0.371037 75,75 0 0 1 0.68574,-4.062285 z m -26.59628,0.798401 a 112.52315,112.52315 0 0 0 -0.17881,0.350883 112.52315,112.52315 0 0 1 0.17881,-0.350883 z m -2.75747,5.791895 a 112.52315,112.52315 0 0 0 -0.16433,0.374654 112.52315,112.52315 0 0 1 0.16433,-0.374654 z m -0.36484,0.836124 a 112.52315,112.52315 0 0 0 -0.17673,0.411345 112.52315,112.52315 0 0 1 0.17673,-0.411345 z m -0.37517,0.877983 a 112.52315,112.52315 0 0 0 -0.13384,0.318843 112.52315,112.52315 0 0 1 0.13384,-0.318843 z m -0.34106,0.817521 a 112.52315,112.52315 0 0 0 -0.17208,0.420129 112.52315,112.52315 0 0 1 0.17208,-0.420129 z m -0.36225,0.889351 a 112.52315,112.52315 0 0 0 -0.15297,0.381889 112.52315,112.52315 0 0 1 0.15297,-0.381889 z m 29.47262,0.761194 a 75,75 0 0 0 -0.0605,1.497066 75,75 0 0 0 -0.01,0.374138 75,75 0 0 1 0.0703,-1.871204 z m -0.0708,1.871721 a 75,75 0 0 0 -0.0145,0.748791 75,75 0 0 1 0.015,-0.748791 75,75 0 0 1 -5.3e-4,0 z m -0.0207,1.311031 a 75,75 0 0 0 -0.002,0.186552 75,75 0 0 0 0,0.188102 75,75 0 0 1 0.002,-0.374654 z m 25.3075,56.738655 a 75,75 0 0 0 0.43201,0.37879 75,75 0 0 1 -0.43201,-0.37879 z m 6.28126,4.98316 a 75,75 0 0 0 0.48524,0.3421 75,75 0 0 1 -0.48524,-0.3421 z m 0.91882,0.64182 a 75,75 0 0 0 0.49297,0.33641 75,75 0 0 1 -0.49297,-0.33641 z m 1.55233,1.03921 a 75,75 0 0 0 0.3819,0.24702 75,75 0 0 1 -0.3819,-0.24702 z m 1.45624,0.92501 a 75,75 0 0 0 0.95965,0.58446 75,75 0 0 1 -0.95965,-0.58446 z m 3.34915,1.95544 a 75,75 0 0 0 0.54107,0.29507 75,75 0 0 1 -0.54107,-0.29507 z m 0.54107,0.29507 a 75,75 0 0 0 0.54674,0.29145 75,75 0 0 1 -0.54674,-0.29145 z m 0.99322,0.52607 a 75,75 0 0 0 0.55346,0.28473 75,75 0 0 1 -0.55346,-0.28473 z m 0.77875,0.39842 a 75,75 0 0 0 0.44598,0.22376 75,75 0 0 1 -0.44598,-0.22376 z m 0.66818,0.33383 a 75,75 0 0 0 0.56224,0.2744 75,75 0 0 1 -0.56224,-0.2744 z m 0.90022,0.43615 a 75,75 0 0 0 0.67799,0.31884 75,75 0 0 1 -0.67799,-0.31884 z m 2.73058,1.23455 a 75,75 0 0 0 0.58806,0.24856 75,75 0 0 1 -0.58806,-0.24856 z m 1.73064,0.71572 a 75,75 0 0 0 0.59944,0.23564 75,75 0 0 1 -0.59944,-0.23564 z m 4.69326,1.69343 a 75,75 0 0 0 0.48524,0.15503 75,75 0 0 1 -0.48524,-0.15503 z m 1.42213,0.44494 a 75,75 0 0 0 0.61029,0.18138 75,75 0 0 1 -0.61029,-0.18138 z m 8.32766,2.00298 a 75,75 0 0 0 0.60772,0.10697 75,75 0 0 1 -0.60772,-0.10697 z m 0.73432,0.12867 a 75,75 0 0 0 0.61598,0.10284 75,75 0 0 1 -0.61598,-0.10284 z m 1.78747,0.28319 a 75,75 0 0 0 0.69041,0.0971 75,75 0 0 1 -0.69041,-0.0971 z m 1.16118,0.15968 a 75,75 0 0 0 0.64958,0.0817 75,75 0 0 1 -0.64958,-0.0817 z m 2.18488,0.25166 a 75,75 0 0 0 0.7457,0.0708 75,75 0 0 1 -0.7457,-0.0708 z m 2.23914,0.19069 a 75,75 0 0 0 0.74776,0.0486 75,75 0 0 1 -0.74776,-0.0486 z m 0.74776,0.0486 a 75,75 0 0 0 1.10432,0.0579 75,75 0 0 1 -1.10432,-0.0579 z m 1.13739,0.0594 a 75,75 0 0 0 1.48209,0.0517 75,75 0 0 1 -1.48209,-0.0517 z m 1.48209,0.0517 a 75,75 0 0 0 0.74258,0.015 75,75 0 0 1 -0.74258,-0.015 z"
       style="font-variation-settings:normal;opacity:1;vector-effect:none;fill:url(#linearGradient1955);fill-opacity:1;fill-rule:evenodd;stroke-width:0.260125;stroke-linecap:butt;stroke-linejoin:miter;stroke-miterlimit:4;stroke-dasharray:none;stroke-dashoffset:0;stroke-opacity:1;stop-color:#000000;stop-opacity:1"
       id="path1904" />
    <path
       d="m -343.0516,-179.92588 a 112.63521,112.63521 0 0 0 -112.44275,112.634466 112.63521,112.63521 0 0 0 6.51382,37.748084 112.63521,112.63521 0 0 0 0.42994,1.187008 112.63521,112.63521 0 0 0 0.32091,0.860413 112.63521,112.63521 0 0 0 0.13488,0.355017 112.63521,112.63521 0 0 0 0.0517,0.135909 112.63521,112.63521 0 0 0 0.11317,0.293005 112.63521,112.63521 0 0 0 0.0408,0.10697 112.63521,112.63521 0 0 0 0.154,0.394291 112.63521,112.63521 0 0 0 0.15554,0.394808 112.63521,112.63521 0 0 0 0.0253,0.06408 112.63521,112.63521 0 0 0 0.11524,0.289905 112.63521,112.63521 0 0 0 0.0641,0.160197 112.63521,112.63521 0 0 0 0.14986,0.370003 112.63521,112.63521 0 0 0 0.13643,0.33538 112.63521,112.63521 0 0 0 0.0718,0.17415 112.63521,112.63521 0 0 0 0.0341,0.08372 112.63521,112.63521 0 0 0 0.10645,0.256315 112.63521,112.63521 0 0 0 0.17673,0.42323 112.63521,112.63521 0 0 0 0.1788,0.42323 112.63521,112.63521 0 0 0 0.18036,0.422196 112.63521,112.63521 0 0 0 0.1819,0.421163 112.63521,112.63521 0 0 0 0.18397,0.420646 112.63521,112.63521 0 0 0 0.18551,0.419613 112.63521,112.63521 0 0 0 0.37621,0.837675 112.63521,112.63521 0 0 0 0.19068,0.417545 112.63521,112.63521 0 0 0 0.19276,0.417029 112.63521,112.63521 0 0 0 0.19379,0.415995 112.63521,112.63521 0 0 0 0.19584,0.414962 112.63521,112.63521 0 0 0 0.19741,0.414445 112.63521,112.63521 0 0 0 0.19897,0.413412 112.63521,112.63521 0 0 0 0.201,0.412894 112.63521,112.63521 0 0 0 0.40669,0.823206 112.63521,112.63521 0 0 0 0.20413,0.407727 112.63521,112.63521 0 0 0 0.002,0.0036 112.63521,112.63521 0 0 0 0.62735,1.224731 112.63521,112.63521 0 0 0 0.21241,0.407211 112.63521,112.63521 0 0 0 0.42995,0.810803 112.63521,112.63521 0 0 0 0.21341,0.397392 112.63521,112.63521 0 0 0 0.007,0.01292 112.63521,112.63521 0 0 0 0.216,0.397392 112.63521,112.63521 0 0 0 0.20619,0.376721 112.63521,112.63521 0 0 0 0.029,0.05168 112.63521,112.63521 0 0 0 0.43201,0.77618 112.63521,112.63521 0 0 0 0.22582,0.399976 112.63521,112.63521 0 0 0 0.22738,0.398942 112.63521,112.63521 0 0 0 0.2217,0.384989 112.63521,112.63521 0 0 0 0.0196,0.03359 112.63521,112.63521 0 0 0 0.20362,0.3514 112.63521,112.63521 0 0 0 0.0191,0.03256 112.63521,112.63521 0 0 0 0.22738,0.38809 112.63521,112.63521 0 0 0 0.2341,0.395325 112.63521,112.63521 0 0 0 0.23511,0.393774 112.63521,112.63521 0 0 0 0.2372,0.393258 112.63521,112.63521 0 0 0 0.21601,0.355534 112.63521,112.63521 0 0 0 0.032,0.05323 112.63521,112.63521 0 0 0 0.23048,0.374655 112.63521,112.63521 0 0 0 0.24185,0.390157 112.63521,112.63521 0 0 0 0.24339,0.389123 112.63521,112.63521 0 0 0 0.24495,0.388607 112.63521,112.63521 0 0 0 0.24649,0.387056 112.63521,112.63521 0 0 0 0.24805,0.386022 112.63521,112.63521 0 0 0 0.1969,0.303858 112.63521,112.63521 0 0 0 0.0791,0.122473 112.63521,112.63521 0 0 0 0.22479,0.343133 112.63521,112.63521 0 0 0 0.2532,0.383439 112.63521,112.63521 0 0 0 0.25427,0.381889 112.63521,112.63521 0 0 0 0.24751,0.36897 112.63521,112.63521 0 0 0 0.0181,0.02687 112.63521,112.63521 0 0 0 0.2217,0.327628 112.63521,112.63521 0 0 0 0.0403,0.05891 112.63521,112.63521 0 0 0 0.24495,0.358116 112.63521,112.63521 0 0 0 0.26046,0.377756 112.63521,112.63521 0 0 0 0.26199,0.376722 112.63521,112.63521 0 0 0 0.26355,0.375687 112.63521,112.63521 0 0 0 0.2217,0.313674 112.63521,112.63521 0 0 0 0.13073,0.18397 112.63521,112.63521 0 0 0 0.0491,0.06873 112.63521,112.63521 0 0 0 0.16174,0.226343 112.63521,112.63521 0 0 0 0.23667,0.328147 112.63521,112.63521 0 0 0 0.26977,0.37155099 112.63521,112.63521 0 0 0 0.27131,0.37052 112.63521,112.63521 0 0 0 0.54723,0.737423 112.63521,112.63521 0 0 0 0.27543,0.366903 112.63521,112.63521 0 0 0 0.27753,0.365868 112.63521,112.63521 0 0 0 0.27852,0.36483701 112.63521,112.63521 0 0 0 0.2372,0.307991 112.63521,112.63521 0 0 0 0.0599,0.07751 112.63521,112.63521 0 0 0 0.26511,0.340548 112.63521,112.63521 0 0 0 0.22014,0.281635 112.63521,112.63521 0 0 0 0.0977,0.124024 112.63521,112.63521 0 0 0 0.23304,0.295074 112.63521,112.63521 0 0 0 0.0274,0.03411 112.63521,112.63521 0 0 0 0.27546,0.345715 112.63521,112.63521 0 0 0 0.28731,0.357603 112.63521,112.63521 0 0 0 0.28937,0.356565 112.63521,112.63521 0 0 0 0.29044,0.355534 112.63521,112.63521 0 0 0 0.27955,0.338998 112.63521,112.63521 0 0 0 0.0212,0.02584 112.63521,112.63521 0 0 0 0.26305,0.317293 112.63521,112.63521 0 0 0 0.0315,0.03721 112.63521,112.63521 0 0 0 0.28474,0.340032 112.63521,112.63521 0 0 0 0.27853,0.330213 112.63521,112.63521 0 0 0 0.0264,0.031 112.63521,112.63521 0 0 0 0.28887,0.338998 112.63521,112.63521 0 0 0 0.29922,0.3483 112.63521,112.63521 0 0 0 0.30022,0.346749 112.63521,112.63521 0 0 0 0.30181,0.345716 112.63521,112.63521 0 0 0 0.30332,0.34468 112.63521,112.63521 0 0 0 0.2553,0.287838 112.63521,112.63521 0 0 0 0.12298,0.137459 112.63521,112.63521 0 0 0 0.0956,0.106971 112.63521,112.63521 0 0 0 0.20566,0.22996 112.63521,112.63521 0 0 0 0.0527,0.0584 112.63521,112.63521 0 0 0 0.18606,0.205671 112.63521,112.63521 0 0 0 0.30901,0.339513 112.63521,112.63521 0 0 0 0.31056,0.338482 112.63521,112.63521 0 0 0 0.31163,0.336931 112.63521,112.63521 0 0 0 0.30797,0.331245 112.63521,112.63521 0 0 0 0.006,0.0067 112.63521,112.63521 0 0 0 0.31316,0.332279 112.63521,112.63521 0 0 0 0.31573,0.333312 112.63521,112.63521 0 0 0 0.21497,0.225311 112.63521,112.63521 0 0 0 0.20466,0.213424 112.63521,112.63521 0 0 0 0.0233,0.02429 112.63521,112.63521 0 0 0 0.19275,0.199472 112.63521,112.63521 0 0 0 0.24132,0.249081 112.63521,112.63521 0 0 0 0.12557,0.128675 112.63521,112.63521 0 0 0 0.2739,0.279569 112.63521,112.63521 0 0 0 0.32245,0.32711 112.63521,112.63521 0 0 0 0.3235,0.325046 112.63521,112.63521 0 0 0 0.32555,0.324011 112.63521,112.63521 0 0 0 0.27855,0.275953 112.63521,112.63521 0 0 0 0.0951,0.09353 112.63521,112.63521 0 0 0 0.20671,0.202573 112.63521,112.63521 0 0 0 0.1106,0.108002 112.63521,112.63521 0 0 0 0.28059,0.272853 112.63521,112.63521 0 0 0 0.0191,0.0186 112.63521,112.63521 0 0 0 0.32298,0.31161 112.63521,112.63521 0 0 0 0.31935,0.30592 112.63521,112.63521 0 0 0 0.0238,0.0227 112.63521,112.63521 0 0 0 0.32144,0.30489 112.63521,112.63521 0 0 0 0.31832,0.29973 112.63521,112.63521 0 0 0 0.0274,0.0258 112.63521,112.63521 0 0 0 0.324,0.3023 112.63521,112.63521 0 0 0 0.26874,0.2496 112.63521,112.63521 0 0 0 0.0677,0.0625 112.63521,112.63521 0 0 0 0.13385,0.12299 112.63521,112.63521 0 0 0 0.30748,0.28164 112.63521,112.63521 0 0 0 0.031,0.0284 112.63521,112.63521 0 0 0 0.20515,0.18655 112.63521,112.63521 0 0 0 0.34055,0.30799 112.63521,112.63521 0 0 0 0.34211,0.30644 112.63521,112.63521 0 0 0 0.34311,0.30489 112.63521,112.63521 0 0 0 0.34417,0.30334 112.63521,112.63521 0 0 0 0.3452,0.30231 112.63521,112.63521 0 0 0 0.34674,0.30076 112.63521,112.63521 0 0 0 0.2713,0.23358 112.63521,112.63521 0 0 0 0.15401,0.13177 112.63521,112.63521 0 0 0 0.061,0.0522 112.63521,112.63521 0 0 0 0.21138,0.17983 112.63521,112.63521 0 0 0 0.35036,0.29663 112.63521,112.63521 0 0 0 0.35139,0.29507 112.63521,112.63521 0 0 0 0.35296,0.29352 112.63521,112.63521 0 0 0 0.27543,0.22738 112.63521,112.63521 0 0 0 0.15761,0.12971 112.63521,112.63521 0 0 0 0.27493,0.22479 112.63521,112.63521 0 0 0 10e-4,0.001 112.63521,112.63521 0 0 0 5e-4,0 112.63521,112.63521 0 0 0 0.35605,0.28939 112.63521,112.63521 0 0 0 0.35761,0.28784 112.63521,112.63521 0 0 0 0.31679,0.25373 112.63521,112.63521 0 0 0 0.0584,0.046 112.63521,112.63521 0 0 0 0.34364,0.27182 112.63521,112.63521 0 0 0 0.26149,0.20567 112.63521,112.63521 0 0 0 0.17672,0.13849 112.63521,112.63521 0 0 0 0.0656,0.0512 112.63521,112.63521 0 0 0 0.2191,0.17002 112.63521,112.63521 0 0 0 0.72814,0.55965 112.63521,112.63521 0 0 0 0.30228,0.22945 112.63521,112.63521 0 0 0 0.12094,0.0915 112.63521,112.63521 0 0 0 0.0873,0.0661 112.63521,112.63521 0 0 0 0.22167,0.1664 112.63521,112.63521 0 0 0 0.36433,0.27233 112.63521,112.63521 0 0 0 0.005,0.004 112.63521,112.63521 0 0 0 0.36743,0.27182 112.63521,112.63521 0 0 0 0.29506,0.21653 112.63521,112.63521 0 0 0 0.13436,0.0982 112.63521,112.63521 0 0 0 0.0873,0.0641 112.63521,112.63521 0 0 0 0.22479,0.16278 112.63521,112.63521 0 0 0 0.35142,0.25373 112.63521,112.63521 0 0 0 0.062,0.045 112.63521,112.63521 0 0 0 0.28887,0.20619 112.63521,112.63521 0 0 0 0.0553,0.0393 112.63521,112.63521 0 0 0 0.36226,0.25683 112.63521,112.63521 0 0 0 0.37569,0.26406 112.63521,112.63521 0 0 0 0.37671,0.26252 112.63521,112.63521 0 0 0 0.37774,0.26096 112.63521,112.63521 0 0 0 0.37881,0.25942 112.63521,112.63521 0 0 0 0.37981,0.25787 112.63521,112.63521 0 0 0 0.38087,0.2558 112.63521,112.63521 0 0 0 0.38187,0.25476 112.63521,112.63521 0 0 0 0.38293,0.25321 112.63521,112.63521 0 0 0 0.38396,0.25167 112.63521,112.63521 0 0 0 0.385,0.25011 112.63521,112.63521 0 0 0 0.30541,0.19689 112.63521,112.63521 0 0 0 0.16121,0.10335 112.63521,112.63521 0 0 0 0.0724,0.046 112.63521,112.63521 0 0 0 0.23408,0.14882 112.63521,112.63521 0 0 0 0.37674,0.23823 112.63521,112.63521 0 0 0 0.0217,0.0134 112.63521,112.63521 0 0 0 0.34261,0.21497 112.63521,112.63521 0 0 0 0.0558,0.0351 112.63521,112.63521 0 0 0 0.37002,0.22944 112.63521,112.63521 0 0 0 0.29507,0.18191 112.63521,112.63521 0 0 0 0.22169,0.13539 112.63521,112.63521 0 0 0 0.0662,0.0403 112.63521,112.63521 0 0 0 0.30025,0.18242 112.63521,112.63521 0 0 0 0.23254,0.14005 112.63521,112.63521 0 0 0 0.0837,0.0506 112.63521,112.63521 0 0 0 0.34777,0.20826 112.63521,112.63521 0 0 0 0.0367,0.0217 112.63521,112.63521 0 0 0 0.37415,0.22169 112.63521,112.63521 0 0 0 0.0108,0.007 112.63521,112.63521 0 0 0 0.39172,0.22996 112.63521,112.63521 0 0 0 0.36793,0.21394 112.63521,112.63521 0 0 0 0.0558,0.0326 112.63521,112.63521 0 0 0 0.13023,0.0754 112.63521,112.63521 0 0 0 0.24082,0.1385 112.63521,112.63521 0 0 0 0.39841,0.22737 112.63521,112.63521 0 0 0 0.34158,0.19327 112.63521,112.63521 0 0 0 0.11575,0.0656 112.63521,112.63521 0 0 0 0.26459,0.14831 112.63521,112.63521 0 0 0 0.12559,0.0698 112.63521,112.63521 0 0 0 0.1111,0.062 112.63521,112.63521 0 0 0 0.24286,0.13436 112.63521,112.63521 0 0 0 0.37156,0.20464 112.63521,112.63521 0 0 0 0.0626,0.0341 112.63521,112.63521 0 0 0 0.25527,0.13901 112.63521,112.63521 0 0 0 0.19068,0.10335 112.63521,112.63521 0 0 0 0.25477,0.13695 112.63521,112.63521 0 0 0 0.11988,0.0646 112.63521,112.63521 0 0 0 0.11472,0.0615 112.63521,112.63521 0 0 0 0.24496,0.13022 112.63521,112.63521 0 0 0 0.27596,0.14624 112.63521,112.63521 0 0 0 0.22323,0.11731 112.63521,112.63521 0 0 0 0.0672,0.0357 112.63521,112.63521 0 0 0 0.24599,0.12815 112.63521,112.63521 0 0 0 0.40772,0.21136 112.63521,112.63521 0 0 0 0.33848,0.17363 112.63521,112.63521 0 0 0 0.0998,0.0517 112.63521,112.63521 0 0 0 0.37931,0.19224 112.63521,112.63521 0 0 0 0.41031,0.20619 112.63521,112.63521 0 0 0 0.32504,0.16174 112.63521,112.63521 0 0 0 0.12248,0.061 112.63521,112.63521 0 0 0 0.37515,0.18449 112.63521,112.63521 0 0 0 0.31988,0.15606 112.63521,112.63521 0 0 0 0.16796,0.0816 112.63521,112.63521 0 0 0 0.23617,0.11421 112.63521,112.63521 0 0 0 0.17774,0.0853 112.63521,112.63521 0 0 0 0.20775,0.0992 112.63521,112.63521 0 0 0 0.18656,0.0889 112.63521,112.63521 0 0 0 0.35915,0.1695 112.63521,112.63521 0 0 0 0.416,0.19431 112.63521,112.63521 0 0 0 0.39738,0.18396 112.63521,112.63521 0 0 0 0.0512,0.0238 112.63521,112.63521 0 0 0 0.32763,0.14987 112.63521,112.63521 0 0 0 0.0816,0.0372 112.63521,112.63521 0 0 0 0.28371,0.12868 112.63521,112.63521 0 0 0 0.22119,0.0997 112.63521,112.63521 0 0 0 0.19016,0.0853 112.63521,112.63521 0 0 0 0.15295,0.0677 112.63521,112.63521 0 0 0 0.385,0.17054 112.63521,112.63521 0 0 0 0.33022,0.14469 112.63521,112.63521 0 0 0 0.16484,0.0718 112.63521,112.63521 0 0 0 0.24855,0.10801 112.63521,112.63521 0 0 0 0.15608,0.0672 112.63521,112.63521 0 0 0 0.10903,0.047 112.63521,112.63521 0 0 0 0.25527,0.10904 112.63521,112.63521 0 0 0 0.8227,0.34674 112.63521,112.63521 0 0 0 0.0398,0.0165 112.63521,112.63521 0 0 0 0.40772,0.16847 112.63521,112.63521 0 0 0 0.3292,0.13487 112.63521,112.63521 0 0 0 0.17518,0.0713 112.63521,112.63521 0 0 0 0.23976,0.0971 112.63521,112.63521 0 0 0 0.16796,0.0677 112.63521,112.63521 0 0 0 0.21291,0.0853 112.63521,112.63521 0 0 0 0.32039,0.12712 112.63521,112.63521 0 0 0 0.26458,0.10439 112.63521,112.63521 0 0 0 0.42116,0.16433 112.63521,112.63521 0 0 0 0.40876,0.15813 112.63521,112.63521 0 0 0 0.0284,0.0109 112.63521,112.63521 0 0 0 0.40151,0.15245 112.63521,112.63521 0 0 0 0.0455,0.0176 112.63521,112.63521 0 0 0 0.28524,0.10748 112.63521,112.63521 0 0 0 0.16537,0.0615 112.63521,112.63521 0 0 0 0.38243,0.14211 112.63521,112.63521 0 0 0 0.43098,0.15813 112.63521,112.63521 0 0 0 0.39944,0.14469 112.63521,112.63521 0 0 0 0.0698,0.0253 112.63521,112.63521 0 0 0 0.13332,0.0481 112.63521,112.63521 0 0 0 0.26096,0.093 112.63521,112.63521 0 0 0 0.43305,0.15296 112.63521,112.63521 0 0 0 0.431,0.15038 112.63521,112.63521 0 0 0 0.006,0.002 112.63521,112.63521 0 0 0 0.33695,0.11576 112.63521,112.63521 0 0 0 0.17465,0.0599 112.63521,112.63521 0 0 0 0.091,0.031 112.63521,112.63521 0 0 0 0.26302,0.0889 112.63521,112.63521 0 0 0 0.37311,0.12557 112.63521,112.63521 0 0 0 0.10541,0.0351 112.63521,112.63521 0 0 0 0.39275,0.12919 112.63521,112.63521 0 0 0 0.37931,0.12403 112.63521,112.63521 0 0 0 0.0966,0.0315 112.63521,112.63521 0 0 0 0.39741,0.12712 112.63521,112.63521 0 0 0 0.30591,0.0971 112.63521,112.63521 0 0 0 0.26355,0.0832 112.63521,112.63521 0 0 0 0.10438,0.0326 112.63521,112.63521 0 0 0 0.28165,0.0879 112.63521,112.63521 0 0 0 0.35864,0.11007 112.63521,112.63521 0 0 0 0.43924,0.13333 112.63521,112.63521 0 0 0 0.3979,0.11937 112.63521,112.63521 0 0 0 0.0739,0.0217 112.63521,112.63521 0 0 0 0.40878,0.12041 112.63521,112.63521 0 0 0 0.39894,0.11627 112.63521,112.63521 0 0 0 0.078,0.0222 112.63521,112.63521 0 0 0 0.38343,0.10955 112.63521,112.63521 0 0 0 0.0357,0.0103 112.63521,112.63521 0 0 0 0.32141,0.0904 112.63521,112.63521 0 0 0 0.2,0.0558 112.63521,112.63521 0 0 0 0.22632,0.0625 112.63521,112.63521 0 0 0 0.17468,0.0481 112.63521,112.63521 0 0 0 0.39069,0.10646 112.63521,112.63521 0 0 0 0.31832,0.0858 112.63521,112.63521 0 0 0 0.21963,0.0584 112.63521,112.63521 0 0 0 0.32401,0.0853 112.63521,112.63521 0 0 0 0.0367,0.01 112.63521,112.63521 0 0 0 0.43307,0.11213 112.63521,112.63521 0 0 0 0.37774,0.0966 112.63521,112.63521 0 0 0 0.13386,0.0341 112.63521,112.63521 0 0 0 0.35501,0.0889 112.63521,112.63521 0 0 0 0.0346,0.009 112.63521,112.63521 0 0 0 0.3116,0.0765 112.63521,112.63521 0 0 0 0.24548,0.0605 112.63521,112.63521 0 0 0 0.17465,0.0419 112.63521,112.63521 0 0 0 0.22326,0.0537 112.63521,112.63521 0 0 0 0.20463,0.0491 112.63521,112.63521 0 0 0 0.31729,0.0749 112.63521,112.63521 0 0 0 0.0868,0.0202 112.63521,112.63521 0 0 0 0.27543,0.0641 112.63521,112.63521 0 0 0 0.3824,0.0873 112.63521,112.63521 0 0 0 0.44805,0.10077 112.63521,112.63521 0 0 0 0.41029,0.0909 112.63521,112.63521 0 0 0 0.0713,0.0155 112.63521,112.63521 0 0 0 0.40566,0.0879 112.63521,112.63521 0 0 0 0.0129,0.003 112.63521,112.63521 0 0 0 0.44545,0.094 112.63521,112.63521 0 0 0 0.44958,0.0935 112.63521,112.63521 0 0 0 0.30385,0.062 112.63521,112.63521 0 0 0 0.25271,0.0512 112.63521,112.63521 0 0 0 0.28527,0.0568 112.63521,112.63521 0 0 0 0.10644,0.0207 112.63521,112.63521 0 0 0 0.20722,0.0408 112.63521,112.63521 0 0 0 0.31679,0.0615 112.63521,112.63521 0 0 0 0.23614,0.045 112.63521,112.63521 0 0 0 0.18605,0.0351 112.63521,112.63521 0 0 0 0.12454,0.0233 112.63521,112.63521 0 0 0 0.4041,0.0749 112.63521,112.63521 0 0 0 0.0331,0.006 112.63521,112.63521 0 0 0 0.37209,0.0672 112.63521,112.63521 0 0 0 0.16433,0.0295 112.63521,112.63521 0 0 0 0.23305,0.0408 112.63521,112.63521 0 0 0 0.23772,0.0419 112.63521,112.63521 0 0 0 0.24805,0.0429 112.63521,112.63521 0 0 0 0.26043,0.0439 112.63521,112.63521 0 0 0 0.17777,0.03 112.63521,112.63521 0 0 0 0.1478,0.0243 112.63521,112.63521 0 0 0 0.34211,0.0563 112.63521,112.63521 0 0 0 0.0532,0.009 112.63521,112.63521 0 0 0 0.2744,0.0439 112.63521,112.63521 0 0 0 0.33073,0.0522 112.63521,112.63521 0 0 0 0.29303,0.0455 112.63521,112.63521 0 0 0 0.13073,0.0202 112.63521,112.63521 0 0 0 0.1602,0.0243 112.63521,112.63521 0 0 0 0.44649,0.0667 112.63521,112.63521 0 0 0 0.27905,0.0408 112.63521,112.63521 0 0 0 0.30076,0.0429 112.63521,112.63521 0 0 0 0.0543,0.008 112.63521,112.63521 0 0 0 0.2749,0.0382 112.63521,112.63521 0 0 0 0.35399,0.0486 112.63521,112.63521 0 0 0 0.25167,0.0336 112.63521,112.63521 0 0 0 0.029,0.004 112.63521,112.63521 0 0 0 0.2749,0.0362 112.63521,112.63521 0 0 0 0.45527,0.0584 112.63521,112.63521 0 0 0 0.28837,0.0362 112.63521,112.63521 0 0 0 0.33485,0.0408 112.63521,112.63521 0 0 0 0.0388,0.005 112.63521,112.63521 0 0 0 0.33279,0.0398 112.63521,112.63521 0 0 0 0.37259,0.0429 112.63521,112.63521 0 0 0 0.3793,0.0424 112.63521,112.63521 0 0 0 0.15399,0.0171 112.63521,112.63521 0 0 0 0.2899,0.031 112.63521,112.63521 0 0 0 0.12248,0.0134 112.63521,112.63521 0 0 0 0.42376,0.0434 112.63521,112.63521 0 0 0 0.44545,0.0444 112.63521,112.63521 0 0 0 0.0341,0.003 112.63521,112.63521 0 0 0 0.2372,0.0227 112.63521,112.63521 0 0 0 0.32451,0.0305 112.63521,112.63521 0 0 0 0.2186,0.0202 112.63521,112.63521 0 0 0 0.1664,0.0145 112.63521,112.63521 0 0 0 0.37621,0.0331 112.63521,112.63521 0 0 0 0.0388,0.003 112.63521,112.63521 0 0 0 0.33589,0.0279 112.63521,112.63521 0 0 0 0.21291,0.0176 112.63521,112.63521 0 0 0 0.15605,0.0124 112.63521,112.63521 0 0 0 0.37828,0.0289 112.63521,112.63521 0 0 0 0.38862,0.0284 112.63521,112.63521 0 0 0 0.29868,0.0212 112.63521,112.63521 0 0 0 0.092,0.006 112.63521,112.63521 0 0 0 0.20259,0.0134 112.63521,112.63521 0 0 0 0.35605,0.0232 112.63521,112.63521 0 0 0 0.1514,0.01 112.63521,112.63521 0 0 0 0.23773,0.0145 112.63521,112.63521 0 0 0 0.20669,0.0119 112.63521,112.63521 0 0 0 0.35502,0.0202 112.63521,112.63521 0 0 0 0.004,0 112.63521,112.63521 0 0 0 0.40826,0.0217 112.63521,112.63521 0 0 0 0.0961,0.005 112.63521,112.63521 0 0 0 0.38396,0.0186 112.63521,112.63521 0 0 0 0.0264,10e-4 112.63521,112.63521 0 0 0 0.27696,0.0124 112.63521,112.63521 0 0 0 0.39791,0.0171 112.63521,112.63521 0 0 0 0.12247,0.005 112.63521,112.63521 0 0 0 0.24186,0.009 112.63521,112.63521 0 0 0 0.30438,0.0109 112.63521,112.63521 0 0 0 0.0972,0.003 112.63521,112.63521 0 0 0 0.28318,0.009 112.63521,112.63521 0 0 0 0.38809,0.0114 112.63521,112.63521 0 0 0 0.39016,0.0103 112.63521,112.63521 0 0 0 0.13745,0.003 112.63521,112.63521 0 0 0 0.33745,0.007 112.63521,112.63521 0 0 0 0.0791,0.002 112.63521,112.63521 0 0 0 0.30903,0.006 112.63521,112.63521 0 0 0 0.24908,0.004 112.63521,112.63521 0 0 0 0.16796,0.003 112.63521,112.63521 0 0 0 0.22013,0.003 112.63521,112.63521 0 0 0 0.40463,0.004 112.63521,112.63521 0 0 0 0.45889,0.003 75,75 0 0 1 -74.62541,-74.999034 75,75 0 0 1 5e-4,-0.187069 75,75 0 0 1 0,-0.188102 75,75 0 0 1 10e-4,-0.09354 75,75 0 0 1 5.3e-4,-0.09302 75,75 0 0 1 0.006,-0.56224 75,75 0 0 1 0.0145,-0.748791 75,75 0 0 1 5.3e-4,0 75,75 0 0 1 0,-5.17e-4 75,75 0 0 1 0.01,-0.374138 75,75 0 0 1 0.0605,-1.497066 75,75 0 0 1 0.0646,-1.122412 75,75 0 0 1 0.0522,-0.746724 75,75 0 0 1 0.0289,-0.373621 75,75 0 0 1 0,-5.17e-4 75,75 0 0 1 0.0982,-1.118794 75,75 0 0 1 0.075,-0.745691 75,75 0 0 0 -0.0346,0.334346 75,75 0 0 1 0.35449,-2.936771 75,75 0 0 1 0.0527,-0.371037 75,75 0 0 1 0.0548,-0.370003 75,75 0 0 1 0,-5.17e-4 75,75 0 0 1 0.0568,-0.370003 75,75 0 0 1 0.37983,-2.215369 75,75 0 0 1 0.0698,-0.367936 75,75 0 0 1 0.0718,-0.36742 75,75 0 0 1 0.22585,-1.101224 75,75 0 0 1 0.0785,-0.36587 75,75 0 0 1 0.0812,-0.365352 75,75 0 0 1 0.27027,-1.166337 75,75 0 0 1 0.0196,-0.08113 75,75 0 0 1 0.0511,-0.211873 75,75 0 0 1 0.0129,-0.05168 75,75 0 0 1 0.005,-0.01912 75,75 0 0 1 0.0197,-0.07855 75,75 0 0 1 0.0527,-0.213941 75,75 0 0 1 0,-5.16e-4 75,75 0 0 1 0.0145,-0.05736 75,75 0 0 1 0.56274,-2.115117 75,75 0 0 1 0.20672,-0.719335 75,75 0 0 1 0,-5.17e-4 75,75 0 0 1 0.10594,-0.359152 75,75 0 0 1 0.108,-0.358117 75,75 0 0 1 0,-5.17e-4 75,75 0 0 1 0.0765,-0.248047 75,75 0 0 1 0.0336,-0.109554 75,75 0 0 1 0.22479,-0.715202 75,75 0 0 1 0.0372,-0.114722 75,75 0 0 1 0.0775,-0.241845 75,75 0 0 1 0.11679,-0.355534 75,75 0 0 1 0,-5.17e-4 75,75 0 0 1 0.11832,-0.355017 75,75 0 0 1 0.12041,-0.355017 75,75 0 0 1 0.0315,-0.09043 75,75 0 0 1 0.21498,-0.616499 75,75 0 0 0 -0.0925,0.262516 75,75 0 0 1 0.092,-0.263033 75,75 0 0 1 0.0326,-0.09043 75,75 0 0 1 0.22116,-0.614433 75,75 0 0 1 -5.3e-4,0 75,75 0 0 0 0,-5.17e-4 75,75 0 0 1 0.1292,-0.351399 75,75 0 0 1 0.13126,-0.350366 75,75 0 0 1 0,-5.17e-4 75,75 0 0 1 0.13229,-0.350366 75,75 0 0 1 0.13488,-0.349333 75,75 0 0 1 0,-5.17e-4 75,75 0 0 1 0.0532,-0.135909 75,75 0 0 1 0.0827,-0.21239 75,75 0 0 1 0,-5.17e-4 75,75 0 0 1 0.0987,-0.249597 75,75 0 0 0 -0.0537,0.136943 75,75 0 0 1 0.51729,-1.276408 75,75 0 0 1 0.061,-0.144694 75,75 0 0 1 0.0837,-0.199988 75,75 0 0 1 0,-5.17e-4 75,75 0 0 1 0.14676,-0.344165 75,75 0 0 1 0.14832,-0.344682 75,75 0 0 1 0.0656,-0.149861 75,75 0 0 1 0.0842,-0.192753 75,75 0 0 1 0,-5.17e-4 75,75 0 0 1 0.15193,-0.342098 75,75 0 0 1 0.6749,-1.469679 75,75 0 0 1 0.015,-0.03255 75,75 0 0 1 0.0941,-0.198956 75,75 0 0 1 0.0517,-0.106969 75,75 0 0 1 1.11775,-2.240174 75,75 0 0 1 0.17312,-0.331245 75,75 0 0 1 0,-5.19e-4 75,75 0 0 1 0.17518,-0.330729 75,75 0 0 1 0,-5.16e-4 75,75 0 0 1 0.0563,-0.104386 75,75 0 0 1 0.84492,-1.537374 75,75 0 0 1 0.10541,-0.185002 75,75 0 0 1 0.0796,-0.140042 75,75 0 0 1 0,-5.18e-4 75,75 0 0 1 0.18706,-0.324528 75,75 0 0 1 0.56999,-0.968414 75,75 0 0 1 -5e-4,0 75,75 0 0 0 0,-5.19e-4 75,75 0 0 1 0.19325,-0.320394 75,75 0 0 1 0,-5.16e-4 75,75 0 0 1 0.19484,-0.31936 75,75 0 0 1 0,-5.16e-4 75,75 0 0 1 0.19635,-0.318328 75,75 0 0 1 0,-5.16e-4 75,75 0 0 1 0.19793,-0.31781 75,75 0 0 0 -0.14314,0.230992 75,75 0 0 1 0.14364,-0.231511 75,75 0 0 1 0.19897,-0.316775 75,75 0 0 1 0.20153,-0.315743 75,75 0 0 1 0.20257,-0.315227 75,75 0 0 1 0.20412,-0.313674 75,75 0 0 1 0.20619,-0.312642 75,75 0 0 1 0.71314,-1.058846 75,75 0 0 1 0.12557,-0.18294 75,75 0 0 1 0.21394,-0.30747 75,75 0 0 1 0.21497,-0.30696 75,75 0 0 1 0.21654,-0.30541 75,75 0 0 1 0.2186,-0.30437 75,75 0 0 1 0.44079,-0.60565 75,75 0 0 1 0.44699,-0.601 75,75 0 0 1 0,-5.2e-4 75,75 0 0 1 0.0972,-0.12867 75,75 0 0 1 0.016,-0.0207 75,75 0 0 1 0.24133,-0.31832 75,75 0 0 1 0.0827,-0.10801 75,75 0 0 1 0.0155,-0.0207 75,75 0 0 1 0,-5.2e-4 75,75 0 0 1 0.0982,-0.1266 75,75 0 0 1 0.36121,-0.46509 75,75 0 0 1 -5.3e-4,0 75,75 0 0 0 0,-5.2e-4 75,75 0 0 1 0.23204,-0.29404 75,75 0 0 1 0.70384,-0.87643 75,75 0 0 1 0.10697,-0.13022 75,75 0 0 1 0.36947,-0.44752 75,75 0 0 1 0.48215,-0.57361 75,75 0 0 1 0.24289,-0.28474 75,75 0 0 1 0.24492,-0.2837 75,75 0 0 1 0.49403,-0.56379 75,75 0 0 1 0.0248,-0.0279 75,75 0 0 1 0.22323,-0.25166 75,75 0 0 1 0.11059,-0.12248 75,75 0 0 1 0.0217,-0.0243 75,75 0 0 1 0.49093,-0.54157 75,75 0 0 1 0.0419,-0.0455 75,75 0 0 1 0.0899,-0.0987 75,75 0 0 1 0.1111,-0.11937 75,75 0 0 1 0.39944,-0.42943 75,75 0 0 1 0.25683,-0.27182 75,75 0 0 1 0,-5.2e-4 75,75 0 0 1 0.25892,-0.27078 75,75 0 0 1 0.25993,-0.27027 75,75 0 0 1 0.12867,-0.13229 75,75 0 0 1 0.65886,-0.66869 75,75 0 0 1 40.2389,-20.923271 75,75 0 0 1 0.42272,-0.0724 75,75 0 0 1 0.11885,-0.0196 75,75 0 0 1 11.7352,-1.01699 75,75 0 0 1 0.58446,-0.002 75,75 0 0 1 0.46818,0.002 75,75 0 0 1 0.0134,0 75,75 0 0 1 0.0181,5.2e-4 75,75 0 0 1 0.062,5.2e-4 75,75 0 0 1 0.004,0 75,75 0 0 1 0.18344,0.001 112.52315,112.52315 0 0 1 0.0362,5.2e-4 112.52315,112.52315 0 0 1 111.73735,112.518706 112.52315,112.52315 0 0 1 -103.4252,112.154904 c 0.48765,-0.0172 1.29476,-0.0463 1.52548,-0.0543 a 149.99999,149.99999 0 0 0 139.37594,-149.625917 149.99999,149.99999 0 0 0 -134.44657,-149.191413 112.63521,112.63521 0 0 0 -15.55305,-1.079 112.63521,112.63521 0 0 0 -0.19275,0 z m -58.8605,104.033441 a 75,75 0 0 1 5.3e-4,5.2e-4 75,75 0 0 1 0,-5.2e-4 75,75 0 0 1 -5.3e-4,0 z m -5.29836,7.714258 a 75,75 0 0 1 5e-4,5.19e-4 75,75 0 0 1 0,-5.19e-4 75,75 0 0 1 -5e-4,0 z m -6.1118,12.831775 a 75,75 0 0 1 5.3e-4,5.17e-4 75,75 0 0 1 0,-5.17e-4 75,75 0 0 1 -5.3e-4,0 z m 28.27788,-41.101883 a 112.52315,112.52315 0 0 0 -0.83717,0.3421 112.52315,112.52315 0 0 1 0.83717,-0.3421 z m -33.76952,21.29689 a 112.52315,112.52315 0 0 0 -0.51419,0.47284 112.52315,112.52315 0 0 1 0.51419,-0.47284 z m -12.62094,13.623975 a 112.52315,112.52315 0 0 0 -0.56327,0.724504 112.52315,112.52315 0 0 1 0.56327,-0.724504 z m -4.07622,5.543848 a 112.52315,112.52315 0 0 0 -0.51782,0.757577 112.52315,112.52315 0 0 1 0.51782,-0.757577 z m 166.56655,13.613639 a 75,75 0 0 1 0.0439,0.257866 75,75 0 0 0 -0.0439,-0.257866 z m 0.35142,2.245341 a 75,75 0 0 1 0.0325,0.234094 75,75 0 0 0 -0.0325,-0.234094 z m 0.28162,2.241207 a 75,75 0 0 1 0.0243,0.223759 75,75 0 0 0 -0.0243,-0.223759 z m 0.44183,6.950997 a 75,75 0 0 1 0.009,0.749308 75,75 0 0 0 -0.009,-0.749308 z m -4.78679,27.669628 a 75,75 0 0 1 -0.26715,0.700217 75,75 0 0 0 0.26715,-0.700217 z m -6.2394,12.770281 a 75,75 0 0 1 -0.39481,0.636654 75,75 0 0 0 0.39481,-0.636654 z m -1.40819,2.21175 a 75,75 0 0 1 -0.41651,0.622702 75,75 0 0 0 0.41651,-0.622702 z m -8.66767,10.789526 a 75,75 0 0 1 -0.52401,0.53588 75,75 0 0 0 0.52401,-0.53588 z m -20.45613,14.97221 a 75,75 0 0 1 -0.67231,0.33073 75,75 0 0 0 0.67231,-0.33073 z m -2.36728,1.12758 a 75,75 0 0 1 -0.68318,0.30696 75,75 0 0 0 0.68318,-0.30696 z m -3.44683,1.46554 a 75,75 0 0 1 -0.69763,0.27234 75,75 0 0 0 0.69763,-0.27234 z m -7.89099,2.6293 a 75,75 0 0 1 -0.36174,0.0977 75,75 0 0 0 0.36174,-0.0977 z m -5.8968,1.35444 a 75,75 0 0 1 -0.46508,0.0858 75,75 0 0 0 0.46508,-0.0858 z m -13.26586,1.28416 a 75,75 0 0 1 -0.37103,0.001 75,75 0 0 1 -0.15814,5.1e-4 75,75 0 0 0 0.52917,-0.002 z"
       style="font-variation-settings:normal;opacity:1;vector-effect:none;fill:url(#linearGradient1947);fill-opacity:1;fill-rule:evenodd;stroke-width:0.260125;stroke-linecap:butt;stroke-linejoin:miter;stroke-miterlimit:4;stroke-dasharray:none;stroke-dashoffset:0;stroke-opacity:1;stop-color:#000000;stop-opacity:1"
       id="path1902" />
    <path
       id="path104"
       style="font-variation-settings:normal;opacity:1;vector-effect:none;fill:#ff0000;fill-opacity:1;fill-rule:evenodd;stroke-width:0.260125;stroke-linecap:butt;stroke-linejoin:miter;stroke-miterlimit:4;stroke-dasharray:none;stroke-dashoffset:0;stroke-opacity:1;stop-color:#000000;stop-opacity:1"
       d="m -342.85885,120.34416 a 150,150 0 0 0 10.62313,-0.37673 c -1.60658,0.0554 -10.62313,0.37673 -10.62313,0.37673 z" />
    <path
       id="path106"
       style="font-variation-settings:normal;opacity:1;vector-effect:none;fill:url(#linearGradient1955);fill-opacity:1;fill-rule:evenodd;stroke-width:0.260125;stroke-linecap:butt;stroke-linejoin:miter;stroke-miterlimit:4;stroke-dasharray:none;stroke-dashoffset:0;stroke-opacity:1;stop-color:#000000;stop-opacity:1"
       d="m -358.41243,-178.84688 a 149.99999,149.99999 0 0 0 -134.44656,149.191413 149.99999,149.99999 0 0 0 143.56127,149.861137 112.52315,112.52315 0 0 0 6.43887,0.18448 112.52315,112.52315 0 0 0 112.52284,-112.523362 112.52315,112.52315 0 0 0 -111.9611,-112.520258 75,75 0 0 1 74.43832,74.998003 75,75 0 0 1 -75.00006,74.99955 75,75 0 0 1 -1.11879,-0.008 75,75 0 0 0 0.74414,0.008 112.63521,112.63521 0 0 1 -6.88073,-0.23306 112.63521,112.63521 0 0 1 -0.91622,-0.063 112.63521,112.63521 0 0 1 -5.48182,-0.53381 112.63521,112.63521 0 0 1 -0.91107,-0.11524 112.63521,112.63521 0 0 1 -0.45474,-0.0599 112.63521,112.63521 0 0 1 -0.9095,-0.12609 112.63521,112.63521 0 0 1 -1.36221,-0.20309 112.63521,112.63521 0 0 1 -0.90639,-0.1447 112.63521,112.63521 0 0 1 -0.90537,-0.15193 112.63521,112.63521 0 0 1 -1.35599,-0.24184 112.63521,112.63521 0 0 1 -0.90228,-0.17053 112.63521,112.63521 0 0 1 -0.90073,-0.17777 112.63521,112.63521 0 0 1 -0.44958,-0.092 112.63521,112.63521 0 0 1 -0.89865,-0.18862 112.63521,112.63521 0 0 1 -0.44855,-0.0971 112.63521,112.63521 0 0 1 -1.34358,-0.30231 112.63521,112.63521 0 0 1 -1.33998,-0.31884 112.63521,112.63521 0 0 1 -0.89091,-0.22169 112.63521,112.63521 0 0 1 -0.88881,-0.22893 112.63521,112.63521 0 0 1 -0.44392,-0.11679 112.63521,112.63521 0 0 1 -0.88625,-0.23978 112.63521,112.63521 0 0 1 -2.2071,-0.63097 112.63521,112.63521 0 0 1 -1.31773,-0.39997 112.63521,112.63521 0 0 1 -0.4377,-0.13694 112.63521,112.63521 0 0 1 -0.8749,-0.27906 112.63521,112.63521 0 0 1 -0.87228,-0.28628 112.63521,112.63521 0 0 1 -0.86974,-0.29353 112.63521,112.63521 0 0 1 -0.43407,-0.14934 112.63521,112.63521 0 0 1 -1.29863,-0.45889 112.63521,112.63521 0 0 1 -1.29294,-0.47439 112.63521,112.63521 0 0 1 -2.9931,-1.1684 112.63521,112.63521 0 0 1 -0.84905,-0.34933 112.63521,112.63521 0 0 1 -0.84595,-0.35657 112.63521,112.63521 0 0 1 -0.84336,-0.36329 112.63521,112.63521 0 0 1 -0.84023,-0.37 112.63521,112.63521 0 0 1 -0.83717,-0.37724 112.63521,112.63521 0 0 1 -1.66503,-0.77411 112.63521,112.63521 0 0 1 -0.82732,-0.39739 112.63521,112.63521 0 0 1 -0.82476,-0.40411 112.63521,112.63521 0 0 1 -1.23042,-0.61857 112.63521,112.63521 0 0 1 -1.22266,-0.63355 112.63521,112.63521 0 0 1 -0.81079,-0.43098 112.63521,112.63521 0 0 1 -2.01126,-1.10536 112.63521,112.63521 0 0 1 -0.79788,-0.45372 112.63521,112.63521 0 0 1 -5.3e-4,0 112.63521,112.63521 0 0 1 -0.39737,-0.22944 112.63521,112.63521 0 0 1 -1.97456,-1.17048 112.63521,112.63521 0 0 1 -0.39172,-0.23874 112.63521,112.63521 0 0 1 -0.78084,-0.48266 112.63521,112.63521 0 0 1 -0.38912,-0.24391 112.63521,112.63521 0 0 1 -0.77515,-0.49196 112.63521,112.63521 0 0 1 -0.771,-0.49868 112.63521,112.63521 0 0 1 -1.52963,-1.01544 112.63521,112.63521 0 0 1 -1.13636,-0.77825 112.63521,112.63521 0 0 1 -1.12654,-0.79168 112.63521,112.63521 0 0 1 -0.37362,-0.26717 112.63521,112.63521 0 0 1 -0.74364,-0.53847 112.63521,112.63521 0 0 1 -0.73895,-0.54467 112.63521,112.63521 0 0 1 -2.19057,-1.66966 112.63521,112.63521 0 0 1 -0.72088,-0.56844 112.63521,112.63521 0 0 1 -1.42783,-1.15445 112.63521,112.63521 0 0 1 -0.70694,-0.58602 112.63521,112.63521 0 0 1 -0.35139,-0.29507 112.63521,112.63521 0 0 1 -0.69972,-0.59428 112.63521,112.63521 0 0 1 -1.3844,-1.20612 112.63521,112.63521 0 0 1 -5.1e-4,0 112.63521,112.63521 0 0 1 -0.3426,-0.30489 112.63521,112.63521 0 0 1 -5.3e-4,0 112.63521,112.63521 0 0 1 -0.34158,-0.30645 112.63521,112.63521 0 0 1 -0.68006,-0.61701 112.63521,112.63521 0 0 1 -0.33798,-0.31058 112.63521,112.63521 0 0 1 -0.6723,-0.62528 112.63521,112.63521 0 0 1 -0.33436,-0.31471 112.63521,112.63521 0 0 1 -2.3032,-2.240692 112.63521,112.63521 0 0 1 -0.64595,-0.65164 112.63521,112.63521 0 0 1 0,-5.16e-4 112.63521,112.63521 0 0 1 -0.32144,-0.327631 112.63521,112.63521 0 0 1 -0.6382,-0.659907 112.63521,112.63521 0 0 1 -0.94724,-0.999422 112.63521,112.63521 0 0 1 0,-5.16e-4 112.63521,112.63521 0 0 1 -0.93482,-1.01079 112.63521,112.63521 0 0 1 0,-5.19e-4 112.63521,112.63521 0 0 1 -0.30901,-0.338997 112.63521,112.63521 0 0 1 0,-5.16e-4 112.63521,112.63521 0 0 1 -0.91832,-1.025776 112.63521,112.63521 0 0 1 0,-5.19e-4 112.63521,112.63521 0 0 1 -0.30332,-0.344164 112.63521,112.63521 0 0 1 0,-5.16e-4 112.63521,112.63521 0 0 1 -0.30181,-0.3452 112.63521,112.63521 0 0 1 0,-5.16e-4 112.63521,112.63521 0 0 1 -0.59944,-0.695049 112.63521,112.63521 0 0 1 -0.29765,-0.349332 112.63521,112.63521 0 0 1 -0.59119,-0.702281 112.63521,112.63521 0 0 1 0,-5.19e-4 112.63521,112.63521 0 0 1 -1.16477,-1.419034 112.63521,112.63521 0 0 1 0,-5.16e-4 112.63521,112.63521 0 0 1 -0.57362,-0.716235 112.63521,112.63521 0 0 1 0,-5.19e-4 112.63521,112.63521 0 0 1 -0.28472,-0.359667 112.63521,112.63521 0 0 1 0,-5.15e-4 112.63521,112.63521 0 0 1 -0.56483,-0.723472 112.63521,112.63521 0 0 1 -0.28009,-0.363286 112.63521,112.63521 0 0 1 0,-5.16e-4 112.63521,112.63521 0 0 1 -0.55605,-0.73018901 112.63521,112.63521 0 0 1 0,-5.16e-4 112.63521,112.63521 0 0 1 -0.54983,-0.734838 112.63521,112.63521 0 0 1 0,-5.18e-4 112.63521,112.63521 0 0 1 -0.27283,-0.368451 112.63521,112.63521 0 0 1 0,-5.19e-4 112.63521,112.63521 0 0 1 -0.27131,-0.370001 112.63521,112.63521 0 0 1 0,-5.19e-4 112.63521,112.63521 0 0 1 -0.26977,-0.37103499 112.63521,112.63521 0 0 1 0,-5.16e-4 112.63521,112.63521 0 0 1 -0.79994,-1.120347 112.63521,112.63521 0 0 1 0,-5.16e-4 112.63521,112.63521 0 0 1 -0.26355,-0.375171 112.63521,112.63521 0 0 1 0,-5.16e-4 112.63521,112.63521 0 0 1 -0.78187,-1.133266 112.63521,112.63521 0 0 1 0,-5.16e-4 112.63521,112.63521 0 0 1 -0.51313,-0.760677 112.63521,112.63521 0 0 1 0,-5.16e-4 112.63521,112.63521 0 0 1 -0.50747,-0.764812 112.63521,112.63521 0 0 1 0,-5.16e-4 112.63521,112.63521 0 0 1 -0.25115,-0.38344 112.63521,112.63521 0 0 1 0,-5.16e-4 112.63521,112.63521 0 0 1 -0.2496,-0.38499 112.63521,112.63521 0 0 1 0,-5.18e-4 112.63521,112.63521 0 0 1 -0.24805,-0.385506 112.63521,112.63521 0 0 1 0,-5.16e-4 112.63521,112.63521 0 0 1 -0.49144,-0.775147 112.63521,112.63521 0 0 1 0,-5.16e-4 112.63521,112.63521 0 0 1 -0.24339,-0.388607 112.63521,112.63521 0 0 1 0,-5.16e-4 112.63521,112.63521 0 0 1 -0.24185,-0.389641 112.63521,112.63521 0 0 1 0,-5.16e-4 112.63521,112.63521 0 0 1 -0.2403,-0.390674 112.63521,112.63521 0 0 1 0,-5.17e-4 112.63521,112.63521 0 0 1 -0.47543,-0.784965 112.63521,112.63521 0 0 1 0,-5.17e-4 112.63521,112.63521 0 0 1 -0.46921,-0.788582 112.63521,112.63521 0 0 1 0,-5.17e-4 112.63521,112.63521 0 0 1 -0.23204,-0.395325 112.63521,112.63521 0 0 1 0,-5.17e-4 112.63521,112.63521 0 0 1 -0.68678,-1.193208 112.63521,112.63521 0 0 1 0,-5.17e-4 112.63521,112.63521 0 0 1 -0.22582,-0.399459 112.63521,112.63521 0 0 1 0,-5.17e-4 112.63521,112.63521 0 0 1 -0.44649,-0.801501 112.63521,112.63521 0 0 1 0,-5.17e-4 112.63521,112.63521 0 0 1 -0.22066,-0.402042 112.63521,112.63521 0 0 1 0,-5.17e-4 112.63521,112.63521 0 0 1 -0.43664,-0.807186 112.63521,112.63521 0 0 1 0,-5.17e-4 112.63521,112.63521 0 0 1 -0.42995,-0.810803 112.63521,112.63521 0 0 1 -0.63254,-1.223181 112.63521,112.63521 0 0 1 0,-5.17e-4 112.63521,112.63521 0 0 1 -0.20772,-0.408761 112.63521,112.63521 0 0 1 0,-5.16e-4 112.63521,112.63521 0 0 1 -0.20569,-0.409794 112.63521,112.63521 0 0 1 0,-5.17e-4 112.63521,112.63521 0 0 1 -0.40669,-0.822689 112.63521,112.63521 0 0 1 0,-5.17e-4 112.63521,112.63521 0 0 1 -0.201,-0.412378 112.63521,112.63521 0 0 1 0,-5.16e-4 112.63521,112.63521 0 0 1 -0.19897,-0.412895 112.63521,112.63521 0 0 1 0,-5.17e-4 112.63521,112.63521 0 0 1 -0.39325,-0.829407 112.63521,112.63521 0 0 1 -0.38655,-0.832507 112.63521,112.63521 0 0 1 0,-5.17e-4 112.63521,112.63521 0 0 1 -0.19068,-0.417028 112.63521,112.63521 0 0 1 0,-5.17e-4 112.63521,112.63521 0 0 1 -0.37621,-0.837158 112.63521,112.63521 0 0 1 0,-5.17e-4 112.63521,112.63521 0 0 1 -0.18551,-0.419096 112.63521,112.63521 0 0 1 0,-5.17e-4 112.63521,112.63521 0 0 1 -0.18397,-0.420129 112.63521,112.63521 0 0 1 0,-5.17e-4 112.63521,112.63521 0 0 1 -0.54106,-1.266073 112.63521,112.63521 0 0 1 0,-5.16e-4 112.63521,112.63521 0 0 1 -0.35243,-0.847494 112.63521,112.63521 0 0 1 -0.3452,-0.850594 112.63521,112.63521 0 0 1 -0.17001,-0.426331 112.63521,112.63521 0 0 1 0,-5.16e-4 112.63521,112.63521 0 0 1 -0.33487,-0.854212 112.63521,112.63521 0 0 1 0,-5.17e-4 112.63521,112.63521 0 0 1 -0.16485,-0.42788 112.63521,112.63521 0 0 1 0,-5.17e-4 112.63521,112.63521 0 0 1 -0.91363,-2.476851 112.63521,112.63521 0 0 1 -6.51382,-37.747568 112.63521,112.63521 0 0 1 97.08192,-111.555466 z m 14.96911,74.19289 a 112.52315,112.52315 0 0 0 -0.36742,0.003 112.52315,112.52315 0 0 1 0.36742,-0.003 z m -2.75849,0.0481 a 112.52315,112.52315 0 0 0 -0.3793,0.0119 112.52315,112.52315 0 0 1 0.3793,-0.0119 z m -1.3658,0.0491 a 112.52315,112.52315 0 0 0 -0.40616,0.0176 112.52315,112.52315 0 0 1 0.40616,-0.0176 z m -9.13691,0.75654 a 112.52315,112.52315 0 0 0 -0.41032,0.0517 112.52315,112.52315 0 0 1 0.41032,-0.0517 z m 1.6609,0.14056 a 75,75 0 0 0 -0.67646,0.11473 75,75 0 0 1 0.67646,-0.11473 z m -8.91731,1.00046 a 112.52315,112.52315 0 0 0 -0.41341,0.0801 112.52315,112.52315 0 0 1 0.41341,-0.0801 z m -5.83737,1.27641 a 112.52315,112.52315 0 0 0 -0.4201,0.10387 112.52315,112.52315 0 0 1 0.4201,-0.10387 z m -7.48273,2.121831 a 112.52315,112.52315 0 0 0 -0.42479,0.13746 112.52315,112.52315 0 0 1 0.42479,-0.13746 z m -7.76335,2.81275 a 112.52315,112.52315 0 0 0 -0.83717,0.3421 112.52315,112.52315 0 0 1 0.83717,-0.3421 z m -4.63953,1.99833 a 112.52315,112.52315 0 0 0 -0.37258,0.17156 112.52315,112.52315 0 0 1 0.37258,-0.17156 z m -19.77707,11.62255 a 112.52315,112.52315 0 0 0 -0.30025,0.22117 112.52315,112.52315 0 0 1 0.30025,-0.22117 z m 12.45454,1.27692 a 75,75 0 0 0 -0.25892,0.27078 75,75 0 0 0 -0.25683,0.27234 75,75 0 0 1 0.51575,-0.54312 z m -0.90434,0.96066 a 75,75 0 0 0 -0.12195,0.13126 75,75 0 0 0 -0.13179,0.14418 75,75 0 0 1 0.25374,-0.27544 z m -0.74467,0.81701 a 75,75 0 0 0 -0.13229,0.14676 75,75 0 0 0 -0.24805,0.27957 75,75 0 0 1 0.38034,-0.42633 z m -0.87437,0.99012 a 75,75 0 0 0 -0.24492,0.2837 75,75 0 0 0 -0.24289,0.28474 75,75 0 0 1 0.48781,-0.56844 z m -16.36953,1.05523 a 112.52315,112.52315 0 0 0 -0.34624,0.29662 112.52315,112.52315 0 0 1 0.34624,-0.29662 z m 14.21929,1.54099 a 75,75 0 0 0 -0.23204,0.29404 75,75 0 0 1 5.3e-4,0 75,75 0 0 1 0.23151,-0.29404 z m -0.59272,0.75965 a 75,75 0 0 0 -0.0982,0.1266 75,75 0 0 1 0,5.2e-4 75,75 0 0 0 -0.0982,0.12868 75,75 0 0 1 0.19637,-0.2558 z m -16.54112,0.27543 a 112.52315,112.52315 0 0 0 -0.51419,0.47284 112.52315,112.52315 0 0 1 0.51419,-0.47284 z m 16.10342,0.29869 a 75,75 0 0 0 -0.11319,0.14934 75,75 0 0 0 -0.44699,0.60152 75,75 0 0 1 0.56018,-0.75086 z m -1.00097,1.35651 a 75,75 0 0 0 -0.2186,0.30437 75,75 0 0 0 -0.21654,0.30541 75,75 0 0 1 0.43514,-0.60978 z m -0.65011,0.91674 a 75,75 0 0 0 -0.21394,0.30747 75,75 0 0 0 -0.12557,0.18294 75,75 0 0 1 0.33951,-0.49041 z m -1.05265,1.548739 a 75,75 0 0 0 -0.20619,0.313161 75,75 0 0 0 -0.20412,0.313674 75,75 0 0 1 0.41031,-0.626835 z m -0.61288,0.942062 a 75,75 0 0 0 -0.20153,0.315743 75,75 0 0 0 -0.19897,0.316775 75,75 0 0 1 0.4005,-0.632518 z m -0.401,0.633037 a 75,75 0 0 0 -0.19793,0.31781 75,75 0 0 0 -0.19635,0.318844 75,75 0 0 0 -0.38809,0.640786 75,75 0 0 1 5e-4,0 75,75 0 0 1 0.78187,-1.27744 z m -1.35186,2.246373 a 75,75 0 0 0 -0.18706,0.324528 75,75 0 0 0 -0.185,0.325562 75,75 0 0 1 0.37206,-0.65009 z m -1.09657,1.962156 a 75,75 0 0 0 -0.17674,0.329694 75,75 0 0 0 -0.3483,0.663009 75,75 0 0 1 0.52504,-0.992703 z m -1.64279,3.232877 a 75,75 0 0 0 -0.0517,0.106969 75,75 0 0 0 -0.10903,0.23151 75,75 0 0 1 0.16071,-0.338479 z m -20.91553,0.486791 a 112.52315,112.52315 0 0 0 -0.56327,0.724504 112.52315,112.52315 0 0 1 0.56327,-0.724504 z m 20.07992,1.321367 a 75,75 0 0 0 -0.15193,0.342098 75,75 0 0 0 -0.14986,0.343131 75,75 0 0 1 0.30179,-0.685229 z m -0.45011,1.029394 a 75,75 0 0 0 -0.29144,0.689881 75,75 0 0 1 0.29144,-0.689881 z m -0.75499,1.829346 a 75,75 0 0 0 -0.0987,0.249597 75,75 0 0 0 -0.13592,0.348816 75,75 0 0 1 0.23461,-0.598413 z m -0.23461,0.59893 a 75,75 0 0 0 -0.13488,0.349333 75,75 0 0 0 -0.13229,0.350366 75,75 0 0 1 0.26717,-0.699699 z m -0.26717,0.699699 a 75,75 0 0 0 -0.13126,0.350883 75,75 0 0 0 -0.1292,0.351399 75,75 0 0 1 5.3e-4,0 75,75 0 0 1 0.25993,-0.702282 z m -22.44926,0.06511 a 112.52315,112.52315 0 0 0 -0.51782,0.757577 112.52315,112.52315 0 0 1 0.51782,-0.757577 z m 21.96817,1.25212 a 75,75 0 0 0 -0.0326,0.09043 75,75 0 0 0 -0.092,0.263033 75,75 0 0 1 0.12454,-0.353467 z m -0.24702,0.70745 a 75,75 0 0 0 -0.0315,0.09043 75,75 0 0 0 -0.12041,0.355017 75,75 0 0 0 -0.11832,0.355017 75,75 0 0 0 -0.23151,0.712618 75,75 0 0 1 0.50178,-1.513086 z m -24.25795,1.88774 a 112.52315,112.52315 0 0 0 -0.20153,0.320911 112.52315,112.52315 0 0 1 0.20153,-0.320911 z m 23.53138,0.340031 a 75,75 0 0 0 -0.21807,0.716752 75,75 0 0 0 -0.10594,0.359152 75,75 0 0 0 -0.20672,0.719852 75,75 0 0 1 0.53073,-1.795756 z m -1.08987,3.897437 a 75,75 0 0 0 -0.0904,0.363802 75,75 0 0 1 0.0904,-0.363802 z m -0.0904,0.363802 a 75,75 0 0 0 -0.0176,0.0708 75,75 0 0 0 -0.0708,0.293005 75,75 0 0 1 0.0883,-0.363802 z m -24.93594,-0.290422 a 112.52315,112.52315 0 0 0 -0.21704,0.382406 112.52315,112.52315 0 0 1 0.21704,-0.382406 z m 24.57733,1.820044 a 75,75 0 0 0 -0.0812,0.365869 75,75 0 0 0 -0.0785,0.36587 75,75 0 0 1 0.15968,-0.731739 z m -0.38553,1.832963 a 75,75 0 0 0 -0.0718,0.36742 75,75 0 0 0 -0.0698,0.367936 75,75 0 0 0 -0.37983,2.215369 75,75 0 0 0 -0.0568,0.370003 75,75 0 0 1 0,5.17e-4 75,75 0 0 0 -0.0548,0.370003 75,75 0 0 0 -0.0527,0.371037 75,75 0 0 1 0.68574,-4.062285 z m -26.59628,0.798401 a 112.52315,112.52315 0 0 0 -0.17881,0.350883 112.52315,112.52315 0 0 1 0.17881,-0.350883 z m -2.75747,5.791895 a 112.52315,112.52315 0 0 0 -0.16433,0.374654 112.52315,112.52315 0 0 1 0.16433,-0.374654 z m -0.36484,0.836124 a 112.52315,112.52315 0 0 0 -0.17673,0.411345 112.52315,112.52315 0 0 1 0.17673,-0.411345 z m -0.37517,0.877983 a 112.52315,112.52315 0 0 0 -0.13384,0.318843 112.52315,112.52315 0 0 1 0.13384,-0.318843 z m -0.34106,0.817521 a 112.52315,112.52315 0 0 0 -0.17208,0.420129 112.52315,112.52315 0 0 1 0.17208,-0.420129 z m -0.36225,0.889351 a 112.52315,112.52315 0 0 0 -0.15297,0.381889 112.52315,112.52315 0 0 1 0.15297,-0.381889 z m 29.47262,0.761194 a 75,75 0 0 0 -0.0605,1.497066 75,75 0 0 0 -0.01,0.374138 75,75 0 0 1 0.0703,-1.871204 z m -0.0708,1.871721 a 75,75 0 0 0 -0.0145,0.748791 75,75 0 0 1 0.015,-0.748791 75,75 0 0 1 -5.3e-4,0 z m -0.0207,1.311031 a 75,75 0 0 0 -0.002,0.186552 75,75 0 0 0 0,0.188102 75,75 0 0 1 0.002,-0.374654 z m 25.3075,56.738655 a 75,75 0 0 0 0.43201,0.37879 75,75 0 0 1 -0.43201,-0.37879 z m 6.28126,4.98316 a 75,75 0 0 0 0.48524,0.3421 75,75 0 0 1 -0.48524,-0.3421 z m 0.91882,0.64182 a 75,75 0 0 0 0.49297,0.33641 75,75 0 0 1 -0.49297,-0.33641 z m 1.55233,1.03921 a 75,75 0 0 0 0.3819,0.24702 75,75 0 0 1 -0.3819,-0.24702 z m 1.45624,0.92501 a 75,75 0 0 0 0.95965,0.58446 75,75 0 0 1 -0.95965,-0.58446 z m 3.34915,1.95544 a 75,75 0 0 0 0.54107,0.29507 75,75 0 0 1 -0.54107,-0.29507 z m 0.54107,0.29507 a 75,75 0 0 0 0.54674,0.29145 75,75 0 0 1 -0.54674,-0.29145 z m 0.99322,0.52607 a 75,75 0 0 0 0.55346,0.28473 75,75 0 0 1 -0.55346,-0.28473 z m 0.77875,0.39842 a 75,75 0 0 0 0.44598,0.22376 75,75 0 0 1 -0.44598,-0.22376 z m 0.66818,0.33383 a 75,75 0 0 0 0.56224,0.2744 75,75 0 0 1 -0.56224,-0.2744 z m 0.90022,0.43615 a 75,75 0 0 0 0.67799,0.31884 75,75 0 0 1 -0.67799,-0.31884 z m 2.73058,1.23455 a 75,75 0 0 0 0.58806,0.24856 75,75 0 0 1 -0.58806,-0.24856 z m 1.73064,0.71572 a 75,75 0 0 0 0.59944,0.23564 75,75 0 0 1 -0.59944,-0.23564 z m 4.69326,1.69343 a 75,75 0 0 0 0.48524,0.15503 75,75 0 0 1 -0.48524,-0.15503 z m 1.42213,0.44494 a 75,75 0 0 0 0.61029,0.18138 75,75 0 0 1 -0.61029,-0.18138 z m 8.32766,2.00298 a 75,75 0 0 0 0.60772,0.10697 75,75 0 0 1 -0.60772,-0.10697 z m 0.73432,0.12867 a 75,75 0 0 0 0.61598,0.10284 75,75 0 0 1 -0.61598,-0.10284 z m 1.78747,0.28319 a 75,75 0 0 0 0.69041,0.0971 75,75 0 0 1 -0.69041,-0.0971 z m 1.16118,0.15968 a 75,75 0 0 0 0.64958,0.0817 75,75 0 0 1 -0.64958,-0.0817 z m 2.18488,0.25166 a 75,75 0 0 0 0.7457,0.0708 75,75 0 0 1 -0.7457,-0.0708 z m 2.23914,0.19069 a 75,75 0 0 0 0.74776,0.0486 75,75 0 0 1 -0.74776,-0.0486 z m 0.74776,0.0486 a 75,75 0 0 0 1.10432,0.0579 75,75 0 0 1 -1.10432,-0.0579 z m 1.13739,0.0594 a 75,75 0 0 0 1.48209,0.0517 75,75 0 0 1 -1.48209,-0.0517 z m 1.48209,0.0517 a 75,75 0 0 0 0.74258,0.015 75,75 0 0 1 -0.74258,-0.015 z" />
    <path
       id="path108"
       style="font-variation-settings:normal;opacity:1;vector-effect:none;fill:url(#linearGradient1947);fill-opacity:1;fill-rule:evenodd;stroke-width:0.260125;stroke-linecap:butt;stroke-linejoin:miter;stroke-miterlimit:4;stroke-dasharray:none;stroke-dashoffset:0;stroke-opacity:1;stop-color:#000000;stop-opacity:1"
       d="m -343.0516,-179.92588 a 112.63521,112.63521 0 0 0 -112.44275,112.634466 112.63521,112.63521 0 0 0 6.51382,37.748084 112.63521,112.63521 0 0 0 0.42994,1.187008 112.63521,112.63521 0 0 0 0.32091,0.860413 112.63521,112.63521 0 0 0 0.13488,0.355017 112.63521,112.63521 0 0 0 0.0517,0.135909 112.63521,112.63521 0 0 0 0.11317,0.293005 112.63521,112.63521 0 0 0 0.0408,0.10697 112.63521,112.63521 0 0 0 0.154,0.394291 112.63521,112.63521 0 0 0 0.15554,0.394808 112.63521,112.63521 0 0 0 0.0253,0.06408 112.63521,112.63521 0 0 0 0.11524,0.289905 112.63521,112.63521 0 0 0 0.0641,0.160197 112.63521,112.63521 0 0 0 0.14986,0.370003 112.63521,112.63521 0 0 0 0.13643,0.33538 112.63521,112.63521 0 0 0 0.0718,0.17415 112.63521,112.63521 0 0 0 0.0341,0.08372 112.63521,112.63521 0 0 0 0.10645,0.256315 112.63521,112.63521 0 0 0 0.17673,0.42323 112.63521,112.63521 0 0 0 0.1788,0.42323 112.63521,112.63521 0 0 0 0.18036,0.422196 112.63521,112.63521 0 0 0 0.1819,0.421163 112.63521,112.63521 0 0 0 0.18397,0.420646 112.63521,112.63521 0 0 0 0.18551,0.419613 112.63521,112.63521 0 0 0 0.37621,0.837675 112.63521,112.63521 0 0 0 0.19068,0.417545 112.63521,112.63521 0 0 0 0.19276,0.417029 112.63521,112.63521 0 0 0 0.19379,0.415995 112.63521,112.63521 0 0 0 0.19584,0.414962 112.63521,112.63521 0 0 0 0.19741,0.414445 112.63521,112.63521 0 0 0 0.19897,0.413412 112.63521,112.63521 0 0 0 0.201,0.412894 112.63521,112.63521 0 0 0 0.40669,0.823206 112.63521,112.63521 0 0 0 0.20413,0.407727 112.63521,112.63521 0 0 0 0.002,0.0036 112.63521,112.63521 0 0 0 0.62735,1.224731 112.63521,112.63521 0 0 0 0.21241,0.407211 112.63521,112.63521 0 0 0 0.42995,0.810803 112.63521,112.63521 0 0 0 0.21341,0.397392 112.63521,112.63521 0 0 0 0.007,0.01292 112.63521,112.63521 0 0 0 0.216,0.397392 112.63521,112.63521 0 0 0 0.20619,0.376721 112.63521,112.63521 0 0 0 0.029,0.05168 112.63521,112.63521 0 0 0 0.43201,0.77618 112.63521,112.63521 0 0 0 0.22582,0.399976 112.63521,112.63521 0 0 0 0.22738,0.398942 112.63521,112.63521 0 0 0 0.2217,0.384989 112.63521,112.63521 0 0 0 0.0196,0.03359 112.63521,112.63521 0 0 0 0.20362,0.3514 112.63521,112.63521 0 0 0 0.0191,0.03256 112.63521,112.63521 0 0 0 0.22738,0.38809 112.63521,112.63521 0 0 0 0.2341,0.395325 112.63521,112.63521 0 0 0 0.23511,0.393774 112.63521,112.63521 0 0 0 0.2372,0.393258 112.63521,112.63521 0 0 0 0.21601,0.355534 112.63521,112.63521 0 0 0 0.032,0.05323 112.63521,112.63521 0 0 0 0.23048,0.374655 112.63521,112.63521 0 0 0 0.24185,0.390157 112.63521,112.63521 0 0 0 0.24339,0.389123 112.63521,112.63521 0 0 0 0.24495,0.388607 112.63521,112.63521 0 0 0 0.24649,0.387056 112.63521,112.63521 0 0 0 0.24805,0.386022 112.63521,112.63521 0 0 0 0.1969,0.303858 112.63521,112.63521 0 0 0 0.0791,0.122473 112.63521,112.63521 0 0 0 0.22479,0.343133 112.63521,112.63521 0 0 0 0.2532,0.383439 112.63521,112.63521 0 0 0 0.25427,0.381889 112.63521,112.63521 0 0 0 0.24751,0.36897 112.63521,112.63521 0 0 0 0.0181,0.02687 112.63521,112.63521 0 0 0 0.2217,0.327628 112.63521,112.63521 0 0 0 0.0403,0.05891 112.63521,112.63521 0 0 0 0.24495,0.358116 112.63521,112.63521 0 0 0 0.26046,0.377756 112.63521,112.63521 0 0 0 0.26199,0.376722 112.63521,112.63521 0 0 0 0.26355,0.375687 112.63521,112.63521 0 0 0 0.2217,0.313674 112.63521,112.63521 0 0 0 0.13073,0.18397 112.63521,112.63521 0 0 0 0.0491,0.06873 112.63521,112.63521 0 0 0 0.16174,0.226343 112.63521,112.63521 0 0 0 0.23667,0.328147 112.63521,112.63521 0 0 0 0.26977,0.37155099 112.63521,112.63521 0 0 0 0.27131,0.37052 112.63521,112.63521 0 0 0 0.54723,0.737423 112.63521,112.63521 0 0 0 0.27543,0.366903 112.63521,112.63521 0 0 0 0.27753,0.365868 112.63521,112.63521 0 0 0 0.27852,0.36483701 112.63521,112.63521 0 0 0 0.2372,0.307991 112.63521,112.63521 0 0 0 0.0599,0.07751 112.63521,112.63521 0 0 0 0.26511,0.340548 112.63521,112.63521 0 0 0 0.22014,0.281635 112.63521,112.63521 0 0 0 0.0977,0.124024 112.63521,112.63521 0 0 0 0.23304,0.295074 112.63521,112.63521 0 0 0 0.0274,0.03411 112.63521,112.63521 0 0 0 0.27546,0.345715 112.63521,112.63521 0 0 0 0.28731,0.357603 112.63521,112.63521 0 0 0 0.28937,0.356565 112.63521,112.63521 0 0 0 0.29044,0.355534 112.63521,112.63521 0 0 0 0.27955,0.338998 112.63521,112.63521 0 0 0 0.0212,0.02584 112.63521,112.63521 0 0 0 0.26305,0.317293 112.63521,112.63521 0 0 0 0.0315,0.03721 112.63521,112.63521 0 0 0 0.28474,0.340032 112.63521,112.63521 0 0 0 0.27853,0.330213 112.63521,112.63521 0 0 0 0.0264,0.031 112.63521,112.63521 0 0 0 0.28887,0.338998 112.63521,112.63521 0 0 0 0.29922,0.3483 112.63521,112.63521 0 0 0 0.30022,0.346749 112.63521,112.63521 0 0 0 0.30181,0.345716 112.63521,112.63521 0 0 0 0.30332,0.34468 112.63521,112.63521 0 0 0 0.2553,0.287838 112.63521,112.63521 0 0 0 0.12298,0.137459 112.63521,112.63521 0 0 0 0.0956,0.106971 112.63521,112.63521 0 0 0 0.20566,0.22996 112.63521,112.63521 0 0 0 0.0527,0.0584 112.63521,112.63521 0 0 0 0.18606,0.205671 112.63521,112.63521 0 0 0 0.30901,0.339513 112.63521,112.63521 0 0 0 0.31056,0.338482 112.63521,112.63521 0 0 0 0.31163,0.336931 112.63521,112.63521 0 0 0 0.30797,0.331245 112.63521,112.63521 0 0 0 0.006,0.0067 112.63521,112.63521 0 0 0 0.31316,0.332279 112.63521,112.63521 0 0 0 0.31573,0.333312 112.63521,112.63521 0 0 0 0.21497,0.225311 112.63521,112.63521 0 0 0 0.20466,0.213424 112.63521,112.63521 0 0 0 0.0233,0.02429 112.63521,112.63521 0 0 0 0.19275,0.199472 112.63521,112.63521 0 0 0 0.24132,0.249081 112.63521,112.63521 0 0 0 0.12557,0.128675 112.63521,112.63521 0 0 0 0.2739,0.279569 112.63521,112.63521 0 0 0 0.32245,0.32711 112.63521,112.63521 0 0 0 0.3235,0.325046 112.63521,112.63521 0 0 0 0.32555,0.324011 112.63521,112.63521 0 0 0 0.27855,0.275953 112.63521,112.63521 0 0 0 0.0951,0.09353 112.63521,112.63521 0 0 0 0.20671,0.202573 112.63521,112.63521 0 0 0 0.1106,0.108002 112.63521,112.63521 0 0 0 0.28059,0.272853 112.63521,112.63521 0 0 0 0.0191,0.0186 112.63521,112.63521 0 0 0 0.32298,0.31161 112.63521,112.63521 0 0 0 0.31935,0.30592 112.63521,112.63521 0 0 0 0.0238,0.0227 112.63521,112.63521 0 0 0 0.32144,0.30489 112.63521,112.63521 0 0 0 0.31832,0.29973 112.63521,112.63521 0 0 0 0.0274,0.0258 112.63521,112.63521 0 0 0 0.324,0.3023 112.63521,112.63521 0 0 0 0.26874,0.2496 112.63521,112.63521 0 0 0 0.0677,0.0625 112.63521,112.63521 0 0 0 0.13385,0.12299 112.63521,112.63521 0 0 0 0.30748,0.28164 112.63521,112.63521 0 0 0 0.031,0.0284 112.63521,112.63521 0 0 0 0.20515,0.18655 112.63521,112.63521 0 0 0 0.34055,0.30799 112.63521,112.63521 0 0 0 0.34211,0.30644 112.63521,112.63521 0 0 0 0.34311,0.30489 112.63521,112.63521 0 0 0 0.34417,0.30334 112.63521,112.63521 0 0 0 0.3452,0.30231 112.63521,112.63521 0 0 0 0.34674,0.30076 112.63521,112.63521 0 0 0 0.2713,0.23358 112.63521,112.63521 0 0 0 0.15401,0.13177 112.63521,112.63521 0 0 0 0.061,0.0522 112.63521,112.63521 0 0 0 0.21138,0.17983 112.63521,112.63521 0 0 0 0.35036,0.29663 112.63521,112.63521 0 0 0 0.35139,0.29507 112.63521,112.63521 0 0 0 0.35296,0.29352 112.63521,112.63521 0 0 0 0.27543,0.22738 112.63521,112.63521 0 0 0 0.15761,0.12971 112.63521,112.63521 0 0 0 0.27493,0.22479 112.63521,112.63521 0 0 0 10e-4,0.001 112.63521,112.63521 0 0 0 5e-4,0 112.63521,112.63521 0 0 0 0.35605,0.28939 112.63521,112.63521 0 0 0 0.35761,0.28784 112.63521,112.63521 0 0 0 0.31679,0.25373 112.63521,112.63521 0 0 0 0.0584,0.046 112.63521,112.63521 0 0 0 0.34364,0.27182 112.63521,112.63521 0 0 0 0.26149,0.20567 112.63521,112.63521 0 0 0 0.17672,0.13849 112.63521,112.63521 0 0 0 0.0656,0.0512 112.63521,112.63521 0 0 0 0.2191,0.17002 112.63521,112.63521 0 0 0 0.72814,0.55965 112.63521,112.63521 0 0 0 0.30228,0.22945 112.63521,112.63521 0 0 0 0.12094,0.0915 112.63521,112.63521 0 0 0 0.0873,0.0661 112.63521,112.63521 0 0 0 0.22167,0.1664 112.63521,112.63521 0 0 0 0.36433,0.27233 112.63521,112.63521 0 0 0 0.005,0.004 112.63521,112.63521 0 0 0 0.36743,0.27182 112.63521,112.63521 0 0 0 0.29506,0.21653 112.63521,112.63521 0 0 0 0.13436,0.0982 112.63521,112.63521 0 0 0 0.0873,0.0641 112.63521,112.63521 0 0 0 0.22479,0.16278 112.63521,112.63521 0 0 0 0.35142,0.25373 112.63521,112.63521 0 0 0 0.062,0.045 112.63521,112.63521 0 0 0 0.28887,0.20619 112.63521,112.63521 0 0 0 0.0553,0.0393 112.63521,112.63521 0 0 0 0.36226,0.25683 112.63521,112.63521 0 0 0 0.37569,0.26406 112.63521,112.63521 0 0 0 0.37671,0.26252 112.63521,112.63521 0 0 0 0.37774,0.26096 112.63521,112.63521 0 0 0 0.37881,0.25942 112.63521,112.63521 0 0 0 0.37981,0.25787 112.63521,112.63521 0 0 0 0.38087,0.2558 112.63521,112.63521 0 0 0 0.38187,0.25476 112.63521,112.63521 0 0 0 0.38293,0.25321 112.63521,112.63521 0 0 0 0.38396,0.25167 112.63521,112.63521 0 0 0 0.385,0.25011 112.63521,112.63521 0 0 0 0.30541,0.19689 112.63521,112.63521 0 0 0 0.16121,0.10335 112.63521,112.63521 0 0 0 0.0724,0.046 112.63521,112.63521 0 0 0 0.23408,0.14882 112.63521,112.63521 0 0 0 0.37674,0.23823 112.63521,112.63521 0 0 0 0.0217,0.0134 112.63521,112.63521 0 0 0 0.34261,0.21497 112.63521,112.63521 0 0 0 0.0558,0.0351 112.63521,112.63521 0 0 0 0.37002,0.22944 112.63521,112.63521 0 0 0 0.29507,0.18191 112.63521,112.63521 0 0 0 0.22169,0.13539 112.63521,112.63521 0 0 0 0.0662,0.0403 112.63521,112.63521 0 0 0 0.30025,0.18242 112.63521,112.63521 0 0 0 0.23254,0.14005 112.63521,112.63521 0 0 0 0.0837,0.0506 112.63521,112.63521 0 0 0 0.34777,0.20826 112.63521,112.63521 0 0 0 0.0367,0.0217 112.63521,112.63521 0 0 0 0.37415,0.22169 112.63521,112.63521 0 0 0 0.0108,0.007 112.63521,112.63521 0 0 0 0.39172,0.22996 112.63521,112.63521 0 0 0 0.36793,0.21394 112.63521,112.63521 0 0 0 0.0558,0.0326 112.63521,112.63521 0 0 0 0.13023,0.0754 112.63521,112.63521 0 0 0 0.24082,0.1385 112.63521,112.63521 0 0 0 0.39841,0.22737 112.63521,112.63521 0 0 0 0.34158,0.19327 112.63521,112.63521 0 0 0 0.11575,0.0656 112.63521,112.63521 0 0 0 0.26459,0.14831 112.63521,112.63521 0 0 0 0.12559,0.0698 112.63521,112.63521 0 0 0 0.1111,0.062 112.63521,112.63521 0 0 0 0.24286,0.13436 112.63521,112.63521 0 0 0 0.37156,0.20464 112.63521,112.63521 0 0 0 0.0626,0.0341 112.63521,112.63521 0 0 0 0.25527,0.13901 112.63521,112.63521 0 0 0 0.19068,0.10335 112.63521,112.63521 0 0 0 0.25477,0.13695 112.63521,112.63521 0 0 0 0.11988,0.0646 112.63521,112.63521 0 0 0 0.11472,0.0615 112.63521,112.63521 0 0 0 0.24496,0.13022 112.63521,112.63521 0 0 0 0.27596,0.14624 112.63521,112.63521 0 0 0 0.22323,0.11731 112.63521,112.63521 0 0 0 0.0672,0.0357 112.63521,112.63521 0 0 0 0.24599,0.12815 112.63521,112.63521 0 0 0 0.40772,0.21136 112.63521,112.63521 0 0 0 0.33848,0.17363 112.63521,112.63521 0 0 0 0.0998,0.0517 112.63521,112.63521 0 0 0 0.37931,0.19224 112.63521,112.63521 0 0 0 0.41031,0.20619 112.63521,112.63521 0 0 0 0.32504,0.16174 112.63521,112.63521 0 0 0 0.12248,0.061 112.63521,112.63521 0 0 0 0.37515,0.18449 112.63521,112.63521 0 0 0 0.31988,0.15606 112.63521,112.63521 0 0 0 0.16796,0.0816 112.63521,112.63521 0 0 0 0.23617,0.11421 112.63521,112.63521 0 0 0 0.17774,0.0853 112.63521,112.63521 0 0 0 0.20775,0.0992 112.63521,112.63521 0 0 0 0.18656,0.0889 112.63521,112.63521 0 0 0 0.35915,0.1695 112.63521,112.63521 0 0 0 0.416,0.19431 112.63521,112.63521 0 0 0 0.39738,0.18396 112.63521,112.63521 0 0 0 0.0512,0.0238 112.63521,112.63521 0 0 0 0.32763,0.14987 112.63521,112.63521 0 0 0 0.0816,0.0372 112.63521,112.63521 0 0 0 0.28371,0.12868 112.63521,112.63521 0 0 0 0.22119,0.0997 112.63521,112.63521 0 0 0 0.19016,0.0853 112.63521,112.63521 0 0 0 0.15295,0.0677 112.63521,112.63521 0 0 0 0.385,0.17054 112.63521,112.63521 0 0 0 0.33022,0.14469 112.63521,112.63521 0 0 0 0.16484,0.0718 112.63521,112.63521 0 0 0 0.24855,0.10801 112.63521,112.63521 0 0 0 0.15608,0.0672 112.63521,112.63521 0 0 0 0.10903,0.047 112.63521,112.63521 0 0 0 0.25527,0.10904 112.63521,112.63521 0 0 0 0.8227,0.34674 112.63521,112.63521 0 0 0 0.0398,0.0165 112.63521,112.63521 0 0 0 0.40772,0.16847 112.63521,112.63521 0 0 0 0.3292,0.13487 112.63521,112.63521 0 0 0 0.17518,0.0713 112.63521,112.63521 0 0 0 0.23976,0.0971 112.63521,112.63521 0 0 0 0.16796,0.0677 112.63521,112.63521 0 0 0 0.21291,0.0853 112.63521,112.63521 0 0 0 0.32039,0.12712 112.63521,112.63521 0 0 0 0.26458,0.10439 112.63521,112.63521 0 0 0 0.42116,0.16433 112.63521,112.63521 0 0 0 0.40876,0.15813 112.63521,112.63521 0 0 0 0.0284,0.0109 112.63521,112.63521 0 0 0 0.40151,0.15245 112.63521,112.63521 0 0 0 0.0455,0.0176 112.63521,112.63521 0 0 0 0.28524,0.10748 112.63521,112.63521 0 0 0 0.16537,0.0615 112.63521,112.63521 0 0 0 0.38243,0.14211 112.63521,112.63521 0 0 0 0.43098,0.15813 112.63521,112.63521 0 0 0 0.39944,0.14469 112.63521,112.63521 0 0 0 0.0698,0.0253 112.63521,112.63521 0 0 0 0.13332,0.0481 112.63521,112.63521 0 0 0 0.26096,0.093 112.63521,112.63521 0 0 0 0.43305,0.15296 112.63521,112.63521 0 0 0 0.431,0.15038 112.63521,112.63521 0 0 0 0.006,0.002 112.63521,112.63521 0 0 0 0.33695,0.11576 112.63521,112.63521 0 0 0 0.17465,0.0599 112.63521,112.63521 0 0 0 0.091,0.031 112.63521,112.63521 0 0 0 0.26302,0.0889 112.63521,112.63521 0 0 0 0.37311,0.12557 112.63521,112.63521 0 0 0 0.10541,0.0351 112.63521,112.63521 0 0 0 0.39275,0.12919 112.63521,112.63521 0 0 0 0.37931,0.12403 112.63521,112.63521 0 0 0 0.0966,0.0315 112.63521,112.63521 0 0 0 0.39741,0.12712 112.63521,112.63521 0 0 0 0.30591,0.0971 112.63521,112.63521 0 0 0 0.26355,0.0832 112.63521,112.63521 0 0 0 0.10438,0.0326 112.63521,112.63521 0 0 0 0.28165,0.0879 112.63521,112.63521 0 0 0 0.35864,0.11007 112.63521,112.63521 0 0 0 0.43924,0.13333 112.63521,112.63521 0 0 0 0.3979,0.11937 112.63521,112.63521 0 0 0 0.0739,0.0217 112.63521,112.63521 0 0 0 0.40878,0.12041 112.63521,112.63521 0 0 0 0.39894,0.11627 112.63521,112.63521 0 0 0 0.078,0.0222 112.63521,112.63521 0 0 0 0.38343,0.10955 112.63521,112.63521 0 0 0 0.0357,0.0103 112.63521,112.63521 0 0 0 0.32141,0.0904 112.63521,112.63521 0 0 0 0.2,0.0558 112.63521,112.63521 0 0 0 0.22632,0.0625 112.63521,112.63521 0 0 0 0.17468,0.0481 112.63521,112.63521 0 0 0 0.39069,0.10646 112.63521,112.63521 0 0 0 0.31832,0.0858 112.63521,112.63521 0 0 0 0.21963,0.0584 112.63521,112.63521 0 0 0 0.32401,0.0853 112.63521,112.63521 0 0 0 0.0367,0.01 112.63521,112.63521 0 0 0 0.43307,0.11213 112.63521,112.63521 0 0 0 0.37774,0.0966 112.63521,112.63521 0 0 0 0.13386,0.0341 112.63521,112.63521 0 0 0 0.35501,0.0889 112.63521,112.63521 0 0 0 0.0346,0.009 112.63521,112.63521 0 0 0 0.3116,0.0765 112.63521,112.63521 0 0 0 0.24548,0.0605 112.63521,112.63521 0 0 0 0.17465,0.0419 112.63521,112.63521 0 0 0 0.22326,0.0537 112.63521,112.63521 0 0 0 0.20463,0.0491 112.63521,112.63521 0 0 0 0.31729,0.0749 112.63521,112.63521 0 0 0 0.0868,0.0202 112.63521,112.63521 0 0 0 0.27543,0.0641 112.63521,112.63521 0 0 0 0.3824,0.0873 112.63521,112.63521 0 0 0 0.44805,0.10077 112.63521,112.63521 0 0 0 0.41029,0.0909 112.63521,112.63521 0 0 0 0.0713,0.0155 112.63521,112.63521 0 0 0 0.40566,0.0879 112.63521,112.63521 0 0 0 0.0129,0.003 112.63521,112.63521 0 0 0 0.44545,0.094 112.63521,112.63521 0 0 0 0.44958,0.0935 112.63521,112.63521 0 0 0 0.30385,0.062 112.63521,112.63521 0 0 0 0.25271,0.0512 112.63521,112.63521 0 0 0 0.28527,0.0568 112.63521,112.63521 0 0 0 0.10644,0.0207 112.63521,112.63521 0 0 0 0.20722,0.0408 112.63521,112.63521 0 0 0 0.31679,0.0615 112.63521,112.63521 0 0 0 0.23614,0.045 112.63521,112.63521 0 0 0 0.18605,0.0351 112.63521,112.63521 0 0 0 0.12454,0.0233 112.63521,112.63521 0 0 0 0.4041,0.0749 112.63521,112.63521 0 0 0 0.0331,0.006 112.63521,112.63521 0 0 0 0.37209,0.0672 112.63521,112.63521 0 0 0 0.16433,0.0295 112.63521,112.63521 0 0 0 0.23305,0.0408 112.63521,112.63521 0 0 0 0.23772,0.0419 112.63521,112.63521 0 0 0 0.24805,0.0429 112.63521,112.63521 0 0 0 0.26043,0.0439 112.63521,112.63521 0 0 0 0.17777,0.03 112.63521,112.63521 0 0 0 0.1478,0.0243 112.63521,112.63521 0 0 0 0.34211,0.0563 112.63521,112.63521 0 0 0 0.0532,0.009 112.63521,112.63521 0 0 0 0.2744,0.0439 112.63521,112.63521 0 0 0 0.33073,0.0522 112.63521,112.63521 0 0 0 0.29303,0.0455 112.63521,112.63521 0 0 0 0.13073,0.0202 112.63521,112.63521 0 0 0 0.1602,0.0243 112.63521,112.63521 0 0 0 0.44649,0.0667 112.63521,112.63521 0 0 0 0.27905,0.0408 112.63521,112.63521 0 0 0 0.30076,0.0429 112.63521,112.63521 0 0 0 0.0543,0.008 112.63521,112.63521 0 0 0 0.2749,0.0382 112.63521,112.63521 0 0 0 0.35399,0.0486 112.63521,112.63521 0 0 0 0.25167,0.0336 112.63521,112.63521 0 0 0 0.029,0.004 112.63521,112.63521 0 0 0 0.2749,0.0362 112.63521,112.63521 0 0 0 0.45527,0.0584 112.63521,112.63521 0 0 0 0.28837,0.0362 112.63521,112.63521 0 0 0 0.33485,0.0408 112.63521,112.63521 0 0 0 0.0388,0.005 112.63521,112.63521 0 0 0 0.33279,0.0398 112.63521,112.63521 0 0 0 0.37259,0.0429 112.63521,112.63521 0 0 0 0.3793,0.0424 112.63521,112.63521 0 0 0 0.15399,0.0171 112.63521,112.63521 0 0 0 0.2899,0.031 112.63521,112.63521 0 0 0 0.12248,0.0134 112.63521,112.63521 0 0 0 0.42376,0.0434 112.63521,112.63521 0 0 0 0.44545,0.0444 112.63521,112.63521 0 0 0 0.0341,0.003 112.63521,112.63521 0 0 0 0.2372,0.0227 112.63521,112.63521 0 0 0 0.32451,0.0305 112.63521,112.63521 0 0 0 0.2186,0.0202 112.63521,112.63521 0 0 0 0.1664,0.0145 112.63521,112.63521 0 0 0 0.37621,0.0331 112.63521,112.63521 0 0 0 0.0388,0.003 112.63521,112.63521 0 0 0 0.33589,0.0279 112.63521,112.63521 0 0 0 0.21291,0.0176 112.63521,112.63521 0 0 0 0.15605,0.0124 112.63521,112.63521 0 0 0 0.37828,0.0289 112.63521,112.63521 0 0 0 0.38862,0.0284 112.63521,112.63521 0 0 0 0.29868,0.0212 112.63521,112.63521 0 0 0 0.092,0.006 112.63521,112.63521 0 0 0 0.20259,0.0134 112.63521,112.63521 0 0 0 0.35605,0.0232 112.63521,112.63521 0 0 0 0.1514,0.01 112.63521,112.63521 0 0 0 0.23773,0.0145 112.63521,112.63521 0 0 0 0.20669,0.0119 112.63521,112.63521 0 0 0 0.35502,0.0202 112.63521,112.63521 0 0 0 0.004,0 112.63521,112.63521 0 0 0 0.40826,0.0217 112.63521,112.63521 0 0 0 0.0961,0.005 112.63521,112.63521 0 0 0 0.38396,0.0186 112.63521,112.63521 0 0 0 0.0264,10e-4 112.63521,112.63521 0 0 0 0.27696,0.0124 112.63521,112.63521 0 0 0 0.39791,0.0171 112.63521,112.63521 0 0 0 0.12247,0.005 112.63521,112.63521 0 0 0 0.24186,0.009 112.63521,112.63521 0 0 0 0.30438,0.0109 112.63521,112.63521 0 0 0 0.0972,0.003 112.63521,112.63521 0 0 0 0.28318,0.009 112.63521,112.63521 0 0 0 0.38809,0.0114 112.63521,112.63521 0 0 0 0.39016,0.0103 112.63521,112.63521 0 0 0 0.13745,0.003 112.63521,112.63521 0 0 0 0.33745,0.007 112.63521,112.63521 0 0 0 0.0791,0.002 112.63521,112.63521 0 0 0 0.30903,0.006 112.63521,112.63521 0 0 0 0.24908,0.004 112.63521,112.63521 0 0 0 0.16796,0.003 112.63521,112.63521 0 0 0 0.22013,0.003 112.63521,112.63521 0 0 0 0.40463,0.004 112.63521,112.63521 0 0 0 0.45889,0.003 75,75 0 0 1 -74.62541,-74.999034 75,75 0 0 1 5e-4,-0.187069 75,75 0 0 1 0,-0.188102 75,75 0 0 1 10e-4,-0.09354 75,75 0 0 1 5.3e-4,-0.09302 75,75 0 0 1 0.006,-0.56224 75,75 0 0 1 0.0145,-0.748791 75,75 0 0 1 5.3e-4,0 75,75 0 0 1 0,-5.17e-4 75,75 0 0 1 0.01,-0.374138 75,75 0 0 1 0.0605,-1.497066 75,75 0 0 1 0.0646,-1.122412 75,75 0 0 1 0.0522,-0.746724 75,75 0 0 1 0.0289,-0.373621 75,75 0 0 1 0,-5.17e-4 75,75 0 0 1 0.0982,-1.118794 75,75 0 0 1 0.075,-0.745691 75,75 0 0 0 -0.0346,0.334346 75,75 0 0 1 0.35449,-2.936771 75,75 0 0 1 0.0527,-0.371037 75,75 0 0 1 0.0548,-0.370003 75,75 0 0 1 0,-5.17e-4 75,75 0 0 1 0.0568,-0.370003 75,75 0 0 1 0.37983,-2.215369 75,75 0 0 1 0.0698,-0.367936 75,75 0 0 1 0.0718,-0.36742 75,75 0 0 1 0.22585,-1.101224 75,75 0 0 1 0.0785,-0.36587 75,75 0 0 1 0.0812,-0.365352 75,75 0 0 1 0.27027,-1.166337 75,75 0 0 1 0.0196,-0.08113 75,75 0 0 1 0.0511,-0.211873 75,75 0 0 1 0.0129,-0.05168 75,75 0 0 1 0.005,-0.01912 75,75 0 0 1 0.0197,-0.07855 75,75 0 0 1 0.0527,-0.213941 75,75 0 0 1 0,-5.16e-4 75,75 0 0 1 0.0145,-0.05736 75,75 0 0 1 0.56274,-2.115117 75,75 0 0 1 0.20672,-0.719335 75,75 0 0 1 0,-5.17e-4 75,75 0 0 1 0.10594,-0.359152 75,75 0 0 1 0.108,-0.358117 75,75 0 0 1 0,-5.17e-4 75,75 0 0 1 0.0765,-0.248047 75,75 0 0 1 0.0336,-0.109554 75,75 0 0 1 0.22479,-0.715202 75,75 0 0 1 0.0372,-0.114722 75,75 0 0 1 0.0775,-0.241845 75,75 0 0 1 0.11679,-0.355534 75,75 0 0 1 0,-5.17e-4 75,75 0 0 1 0.11832,-0.355017 75,75 0 0 1 0.12041,-0.355017 75,75 0 0 1 0.0315,-0.09043 75,75 0 0 1 0.21498,-0.616499 75,75 0 0 0 -0.0925,0.262516 75,75 0 0 1 0.092,-0.263033 75,75 0 0 1 0.0326,-0.09043 75,75 0 0 1 0.22116,-0.614433 75,75 0 0 1 -5.3e-4,0 75,75 0 0 0 0,-5.17e-4 75,75 0 0 1 0.1292,-0.351399 75,75 0 0 1 0.13126,-0.350366 75,75 0 0 1 0,-5.17e-4 75,75 0 0 1 0.13229,-0.350366 75,75 0 0 1 0.13488,-0.349333 75,75 0 0 1 0,-5.17e-4 75,75 0 0 1 0.0532,-0.135909 75,75 0 0 1 0.0827,-0.21239 75,75 0 0 1 0,-5.17e-4 75,75 0 0 1 0.0987,-0.249597 75,75 0 0 0 -0.0537,0.136943 75,75 0 0 1 0.51729,-1.276408 75,75 0 0 1 0.061,-0.144694 75,75 0 0 1 0.0837,-0.199988 75,75 0 0 1 0,-5.17e-4 75,75 0 0 1 0.14676,-0.344165 75,75 0 0 1 0.14832,-0.344682 75,75 0 0 1 0.0656,-0.149861 75,75 0 0 1 0.0842,-0.192753 75,75 0 0 1 0,-5.17e-4 75,75 0 0 1 0.15193,-0.342098 75,75 0 0 1 0.6749,-1.469679 75,75 0 0 1 0.015,-0.03255 75,75 0 0 1 0.0941,-0.198956 75,75 0 0 1 0.0517,-0.106969 75,75 0 0 1 1.11775,-2.240174 75,75 0 0 1 0.17312,-0.331245 75,75 0 0 1 0,-5.19e-4 75,75 0 0 1 0.17518,-0.330729 75,75 0 0 1 0,-5.16e-4 75,75 0 0 1 0.0563,-0.104386 75,75 0 0 1 0.84492,-1.537374 75,75 0 0 1 0.10541,-0.185002 75,75 0 0 1 0.0796,-0.140042 75,75 0 0 1 0,-5.18e-4 75,75 0 0 1 0.18706,-0.324528 75,75 0 0 1 0.56999,-0.968414 75,75 0 0 1 -5e-4,0 75,75 0 0 0 0,-5.19e-4 75,75 0 0 1 0.19325,-0.320394 75,75 0 0 1 0,-5.16e-4 75,75 0 0 1 0.19484,-0.31936 75,75 0 0 1 0,-5.16e-4 75,75 0 0 1 0.19635,-0.318328 75,75 0 0 1 0,-5.16e-4 75,75 0 0 1 0.19793,-0.31781 75,75 0 0 0 -0.14314,0.230992 75,75 0 0 1 0.14364,-0.231511 75,75 0 0 1 0.19897,-0.316775 75,75 0 0 1 0.20153,-0.315743 75,75 0 0 1 0.20257,-0.315227 75,75 0 0 1 0.20412,-0.313674 75,75 0 0 1 0.20619,-0.312642 75,75 0 0 1 0.71314,-1.058846 75,75 0 0 1 0.12557,-0.18294 75,75 0 0 1 0.21394,-0.30747 75,75 0 0 1 0.21497,-0.30696 75,75 0 0 1 0.21654,-0.30541 75,75 0 0 1 0.2186,-0.30437 75,75 0 0 1 0.44079,-0.60565 75,75 0 0 1 0.44699,-0.601 75,75 0 0 1 0,-5.2e-4 75,75 0 0 1 0.0972,-0.12867 75,75 0 0 1 0.016,-0.0207 75,75 0 0 1 0.24133,-0.31832 75,75 0 0 1 0.0827,-0.10801 75,75 0 0 1 0.0155,-0.0207 75,75 0 0 1 0,-5.2e-4 75,75 0 0 1 0.0982,-0.1266 75,75 0 0 1 0.36121,-0.46509 75,75 0 0 1 -5.3e-4,0 75,75 0 0 0 0,-5.2e-4 75,75 0 0 1 0.23204,-0.29404 75,75 0 0 1 0.70384,-0.87643 75,75 0 0 1 0.10697,-0.13022 75,75 0 0 1 0.36947,-0.44752 75,75 0 0 1 0.48215,-0.57361 75,75 0 0 1 0.24289,-0.28474 75,75 0 0 1 0.24492,-0.2837 75,75 0 0 1 0.49403,-0.56379 75,75 0 0 1 0.0248,-0.0279 75,75 0 0 1 0.22323,-0.25166 75,75 0 0 1 0.11059,-0.12248 75,75 0 0 1 0.0217,-0.0243 75,75 0 0 1 0.49093,-0.54157 75,75 0 0 1 0.0419,-0.0455 75,75 0 0 1 0.0899,-0.0987 75,75 0 0 1 0.1111,-0.11937 75,75 0 0 1 0.39944,-0.42943 75,75 0 0 1 0.25683,-0.27182 75,75 0 0 1 0,-5.2e-4 75,75 0 0 1 0.25892,-0.27078 75,75 0 0 1 0.25993,-0.27027 75,75 0 0 1 0.12867,-0.13229 75,75 0 0 1 0.65886,-0.66869 75,75 0 0 1 40.2389,-20.923271 75,75 0 0 1 0.42272,-0.0724 75,75 0 0 1 0.11885,-0.0196 75,75 0 0 1 11.7352,-1.01699 75,75 0 0 1 0.58446,-0.002 75,75 0 0 1 0.46818,0.002 75,75 0 0 1 0.0134,0 75,75 0 0 1 0.0181,5.2e-4 75,75 0 0 1 0.062,5.2e-4 75,75 0 0 1 0.004,0 75,75 0 0 1 0.18344,0.001 112.52315,112.52315 0 0 1 0.0362,5.2e-4 112.52315,112.52315 0 0 1 111.73735,112.518706 112.52315,112.52315 0 0 1 -103.4252,112.154904 c 0.48765,-0.0172 1.29476,-0.0463 1.52548,-0.0543 a 149.99999,149.99999 0 0 0 139.37594,-149.625917 149.99999,149.99999 0 0 0 -134.44657,-149.191413 112.63521,112.63521 0 0 0 -15.55305,-1.079 112.63521,112.63521 0 0 0 -0.19275,0 z m -58.8605,104.033441 a 75,75 0 0 1 5.3e-4,5.2e-4 75,75 0 0 1 0,-5.2e-4 75,75 0 0 1 -5.3e-4,0 z m -5.29836,7.714258 a 75,75 0 0 1 5e-4,5.19e-4 75,75 0 0 1 0,-5.19e-4 75,75 0 0 1 -5e-4,0 z m -6.1118,12.831775 a 75,75 0 0 1 5.3e-4,5.17e-4 75,75 0 0 1 0,-5.17e-4 75,75 0 0 1 -5.3e-4,0 z m 28.27788,-41.101883 a 112.52315,112.52315 0 0 0 -0.83717,0.3421 112.52315,112.52315 0 0 1 0.83717,-0.3421 z m -33.76952,21.29689 a 112.52315,112.52315 0 0 0 -0.51419,0.47284 112.52315,112.52315 0 0 1 0.51419,-0.47284 z m -12.62094,13.623975 a 112.52315,112.52315 0 0 0 -0.56327,0.724504 112.52315,112.52315 0 0 1 0.56327,-0.724504 z m -4.07622,5.543848 a 112.52315,112.52315 0 0 0 -0.51782,0.757577 112.52315,112.52315 0 0 1 0.51782,-0.757577 z m 166.56655,13.613639 a 75,75 0 0 1 0.0439,0.257866 75,75 0 0 0 -0.0439,-0.257866 z m 0.35142,2.245341 a 75,75 0 0 1 0.0325,0.234094 75,75 0 0 0 -0.0325,-0.234094 z m 0.28162,2.241207 a 75,75 0 0 1 0.0243,0.223759 75,75 0 0 0 -0.0243,-0.223759 z m 0.44183,6.950997 a 75,75 0 0 1 0.009,0.749308 75,75 0 0 0 -0.009,-0.749308 z m -4.78679,27.669628 a 75,75 0 0 1 -0.26715,0.700217 75,75 0 0 0 0.26715,-0.700217 z m -6.2394,12.770281 a 75,75 0 0 1 -0.39481,0.636654 75,75 0 0 0 0.39481,-0.636654 z m -1.40819,2.21175 a 75,75 0 0 1 -0.41651,0.622702 75,75 0 0 0 0.41651,-0.622702 z m -8.66767,10.789526 a 75,75 0 0 1 -0.52401,0.53588 75,75 0 0 0 0.52401,-0.53588 z m -20.45613,14.97221 a 75,75 0 0 1 -0.67231,0.33073 75,75 0 0 0 0.67231,-0.33073 z m -2.36728,1.12758 a 75,75 0 0 1 -0.68318,0.30696 75,75 0 0 0 0.68318,-0.30696 z m -3.44683,1.46554 a 75,75 0 0 1 -0.69763,0.27234 75,75 0 0 0 0.69763,-0.27234 z m -7.89099,2.6293 a 75,75 0 0 1 -0.36174,0.0977 75,75 0 0 0 0.36174,-0.0977 z m -5.8968,1.35444 a 75,75 0 0 1 -0.46508,0.0858 75,75 0 0 0 0.46508,-0.0858 z m -13.26586,1.28416 a 75,75 0 0 1 -0.37103,0.001 75,75 0 0 1 -0.15814,5.1e-4 75,75 0 0 0 0.52917,-0.002 z" />
  </g>
</svg>
